<svg version="1.1" xmlns="http://www.w3.org/2000/svg" xmlns:xlink="http://www.w3.org/1999/xlink" x="0px" y="0px"
	 viewBox="0 0 1080 1618" style="enable-background:new 0 0 1080 1618;" xml:space="preserve">
<style type="text/css">
	.st0{fill:#EEF0F2;}
	.st1{fill:#BDE2C8;}
	.st2{fill:#9CC0F9;}
	.st3{fill:#FDE293;}
	.st4{fill:#0000FF;}
</style>
<g id="background_map">
	<rect class="st0" width="1080" height="1618"/>
	<path class="st1" d="M534.8,771.2c-5.6,1.4-10.6,2.7-14.8,3.8c-34,9-42-22-59-50s-38-90-73.9-108.5l-39.2-2.5
		c-7.3,52.8-1.7,111.9,22.1,185.9c52,161.2,205,327,205,327L560,929L534.8,771.2z"/>
</g>
<g id="water">
	<path class="st2" d="M723.5,1254.5c65,22,182.9,76.9,247,141c22,22,109.5,73.9,109.5,73.9V1431c0,0-111.5-82.5-163.5-121.5
		s-210-96-251-138s-71-44-86-173s-72-477-52-540s71-98,147-93s138,14,181-37S1057,0,1057,0h-49.3c0,0-144.7,274-170.7,308
		s-71,40-166,29s-187.5,78.5-181.5,173.5c4.5,71.3,54.6,425.4,79.4,597.6C539.7,1044.4,500.7,968.7,450,874
		c-123.5-230.5-49-360,45-493S529,135,601,0h-63c-72,135-20,240-114,373s-161,269-45,499s158,339,170,445s-84,301-84,301h80
		c0,0,105-187,93-293c-0.3-2.6-0.6-5.2-1-7.8c5.3,1.5,11.9,3.8,17,6.8c10,6,14,15,28,24s66,38,75,42s21,2,28,7s40.9,33,63,57.5
		s34,37.5,35,47.5s1,30,31,37s166,50.3,166,50.3V1573c0,0-35.5-12.5-42.5-12.5s-17-10-27-11s-17-23-31-24s-25,14-43,9s-38-22-37-32
		s7.7-27.2,0-31c-4-2-7,13-10,14s-30-32-44-50s-33-36-42-36s-26-11-32-19s-62-36-77-44s-22-5-33-11c-7.1-3.9-18.4-11.1-25.5-15.7
		c-4.6-30.8-12.8-62.9-25.1-98.7l-11.3-64.6C599.5,1146.5,658.5,1232.5,723.5,1254.5z"/>
</g>
<g id="bridges">
	<path class="st3" d="M371,868c0,0,43-30,53-37s62-36,62-36l-1-2l-58.2,33.7l12.2-10.3l-2-1.4l-67,52L371,868z"/>
	<path class="st3" d="M316,605c0,0,42,3,73,12l3-14c0,0-43.1-6.4-74.5-10.2L316,605z"/>
	<polygon class="st3" points="459,298 529,328 534,318 463,288 	"/>
	<polygon class="st3" points="495,125 562,147 563,142 496,121 	"/>
	<polygon class="st3" points="536.6,2.6 538,0 553.9,0 594,22 589,30 	"/>
	<polygon class="st3" points="531,1244 616,1217 619,1228 535,1254 	"/>
	<polygon class="st3" points="537,1414 624,1444 623,1446 536,1417 	"/>
	<polygon class="st3" points="535.5,1418.5 622.5,1448.5 621.5,1450.5 534.5,1421.5 	"/>
	<polygon class="st3" points="534.5,1422.5 621.5,1452.5 620.5,1454.5 533.5,1425.5 	"/>
	<polygon class="st3" points="609,1483 522,1466 518,1482 604,1498 	"/>
	<polygon class="st3" points="995,1418 1021,1383 1014,1379 988,1414 	"/>
	<polygon class="st3" points="818,1296 826,1257 822,1255.9 814,1295 	"/>
	<polygon class="st3" points="651,1210 678,1179 670,1172 644,1203 	"/>
	<polygon class="st3" points="554,1019 584,1016 583,1013 554,1016 	"/>
	<polygon class="st3" points="520,775 550,768 549,758 518,765 	"/>
	<polygon class="st3" points="530,592 495,593 494,582 530,581 	"/>
	<polygon class="st3" points="576,391 558,367 568,360 586,385 	"/>
	<polygon class="st3" points="862,323 835,305 841,297 868,315 	"/>
	<polygon class="st3" points="1006,91 969,68 963,79 1000,101 	"/>
</g>
<g id="building">
	<circle id="UNL" class="st4" cx="439" cy="834" r="5"/>
	<circle id="MEDIACITE" class="st4" cx="577" cy="598" r="5"/>
	<circle id="RSNM_00000023246372456227242680000003267626648971568027_" class="st4" cx="545" cy="1031" r="5"/>
	<circle id="MAMAC" class="st4" cx="512" cy="883" r="5"/>
</g>
</svg>
