<?xml version="1.0" encoding="utf-8"?>
<!-- Generator: Adobe Illustrator 28.0.0, SVG Export Plug-In . SVG Version: 6.00 Build 0)  -->
<svg version="1.1" xmlns="http://www.w3.org/2000/svg" xmlns:xlink="http://www.w3.org/1999/xlink" x="0px" y="0px"
	 viewBox="0 0 1080 1415" style="enable-background:new 0 0 1080 1415;" xml:space="preserve">
<style type="text/css">
	.st0{fill:#EEF0F2;}
	.st1{fill:#BAE1C5;}
	.st2{fill:#9CC0F9;}
	.st3{fill:#D01E00;}
	.st4{fill:none;stroke:#2EF3FF;stroke-width:10;stroke-linecap:round;stroke-linejoin:round;stroke-miterlimit:10;}
	.st5{fill:#FDE293;}
	.st6{fill:#00007F;}
	.st7{fill:#0B4FFF;}
	.st8{display:none;}
	.st9{display:inline;}
	.st10{fill:#0000FF;}
	.st11{fill:none;stroke:#D01E00;stroke-miterlimit:10;}
	.st12{fill:#2EF3FF;}
</style>
<g id="background_map_00000027584445997301660880000011499456397091151548_">
	<rect x="4" y="1" class="st0" width="1076" height="1414"/>
	<path class="st1" d="M325.5,863.5c-40.7-22.1-62.2-118.6-101-127.7C219.9,786,231.9,835.8,256,900c13.1,34.9,32,68.1,51.2,98.3
		c18.8,29.7,35.5,68.9,49.1,93.6C354.2,1076.1,337.6,949.8,325.5,863.5z"/>
</g>
<g id="water">
	<path class="st2" d="M911.5,49.5C899.5,45.5,961,0,961,0h-24c0,0-45.5,53.5-101.5,72.5s-315,89-395,115s-118,92-126,164
		s-30,180-55,200s-45,22-62,71s-26,75-26,75l11,2c0,0,25-76,41-103s25-26,15-12s-47.9,85-52.5,122.5s-12.5,98.5,12.5,178.5
		s73,108,113,236s57.5,176-5.8,292.5l57.9-0.3c28.7-74.1,36.2-124.5,34-172.2c6.4,2.2,18.6,7,21.6,8.8c7.2,4.3,10.1,10.8,20.2,17.3
		c10.1,6.5,47.7,27.5,54.2,30.3s15.2,1.4,20.2,5.1c5.1,3.6,29.6,23.8,45.5,41.5c15.9,17.7,24.6,27.1,25.3,34.3
		c0.7,7.2,0.7,21.7,22.4,26.7c5.7,1.3,16.6,4.4,29.6,8.3H680c-1.1-0.4-2.1-0.6-3.2-0.7c-7.2-0.7-12.3-16.6-22.4-17.3
		s-18.1,10.1-31.1,6.5c-13-3.6-27.5-15.9-26.7-23.1c0.7-7.2,5.6-19.6,0-22.4c-2.9-1.4-5.1,9.4-7.2,10.1s-21.7-23.1-31.8-36.1
		c-10.1-13-23.8-26-30.3-26c-6.5,0-18.8-7.9-23.1-13.7c-4.3-5.8-44.8-26-55.6-31.8c-10.8-5.8-15.9-3.6-23.8-7.9
		c-4.3-2.4-19.8-14.6-27.7-20.4c-2.5-34-9.6-67.4-17-108c-0.6-3.2-1.7-5.3-3.3-7.2c0-1.7-0.1-3.4-0.2-5.3c10.9,22.3,58,69,87,82
		s107,45,151,80s116,97,219.2,141.5l78.2-0.3c0,0-90.5-38.2-138.5-60.2s-121-84-164-115s-122-58-179-100c-63.9-47.1-57-74-62-108
		s-31-236-43.8-323.6c-12.8-87.6,7.8-118.4,45.8-143.4s98,2,150-11s84-100,137-182s67-139,122-163c43.7-19.1,208-103.9,273.4-137.8
		c17.3-3.4,27.1-5.3,27.1-5.3v-8.7v-19V0C1080,0,923.5,53.5,911.5,49.5z M719.5,220.5c-19,23-51,88-79,133s-51,83-67,118
		s-28,58-62,65s-99-14-148,14s-66,91-62,126s10,88,23,180c12.2,86.3,29.7,219.2,31.8,235.4c-13.6-24.7-30.3-63.9-49.1-93.6
		C288,968.1,269.1,934.9,256,900c-36-96-45-160-12-241s74.5-92.5,92.5-201.5s3-171,124-234c82.8-43.1,342.1-101.7,497.8-134.4
		C908.7,113.8,735.8,200.8,719.5,220.5z"/>
</g>
<g id="bridges">
	<g id="goup-bridge_liege">
		<g>

				<ellipse id="bridge-pointer_00000085930813082776393240000006317399386701224622_" transform="matrix(0.2017 -0.9795 0.9795 0.2017 -1052.2012 1439.7063)" class="st3" cx="357.1" cy="1365.3" rx="18.3" ry="36.9"/>

				<rect id="bridge-shadow_00000143581459889909572230000000234676433999852176_" x="327.4" y="1361.5" transform="matrix(0.9795 0.2017 -0.2017 0.9795 282.6664 -43.9562)" class="st4" width="59.3" height="7.6"/>

				<rect id="bridge_00000000911361714499948620000004603791891901296815_" x="327.1" y="1361.5" transform="matrix(0.9795 0.2017 -0.2017 0.9795 282.6664 -43.9562)" class="st5" width="59.9" height="7.6"/>
		</g>
		<g id="bridge-direction-reverse-clockwise_00000118378815331110995800000012427145813433699996_">
			<g>
				<path class="st6" d="M395.2,1310.6l2.5,9.6c0.2,0.7,0.7,1.3,1.3,1.6c0.6,0.3,1.3,0.5,2.1,0.3c1.4-0.4,2.3-1.9,1.9-3.3l-3.2-12.2
					c-0.2-0.7-0.7-1.3-1.3-1.6L395.2,1310.6z"/>
				<path class="st6" d="M392.6,1318.9c-0.2-0.7-0.7-1.3-1.3-1.6l-3.3,5.6l2.5,9.6c0.2,0.7,0.7,1.3,1.3,1.6c0.6,0.3,1.3,0.5,2.1,0.3
					c1.4-0.4,2.3-1.9,1.9-3.3L392.6,1318.9z"/>
				<path class="st6" d="M385.5,1331.2c-0.2-0.7-0.7-1.3-1.3-1.6l-3.3,5.6l2.5,9.6c0.2,0.7,0.7,1.3,1.3,1.6c0.6,0.3,1.3,0.5,2.1,0.3
					c1.4-0.4,2.3-1.9,1.9-3.3L385.5,1331.2z"/>
			</g>
			<g>
				<path class="st7" d="M395.2,1310.6l-9.6,2.5c-0.7,0.2-1.5,0.1-2.1-0.3s-1.1-0.9-1.3-1.6c-0.4-1.4,0.5-2.9,1.9-3.3l12.2-3.2
					c0.7-0.2,1.5-0.1,2.1,0.3L395.2,1310.6z"/>
				<path class="st7" d="M389.3,1316.9c0.7-0.2,1.5-0.1,2.1,0.3l-3.3,5.6l-9.6,2.5c-0.7,0.2-1.5,0.1-2.1-0.3
					c-0.6-0.3-1.1-0.9-1.3-1.6c-0.4-1.4,0.5-2.9,1.9-3.3L389.3,1316.9z"/>
				<path class="st7" d="M382.1,1329.2c0.7-0.2,1.5-0.1,2.1,0.3l-3.3,5.6l-9.6,2.5c-0.7,0.2-1.5,0.1-2.1-0.3s-1.1-0.9-1.3-1.6
					c-0.4-1.4,0.5-2.9,1.9-3.3L382.1,1329.2z"/>
			</g>
		</g>
		<g id="bridge-direction-clockwise_00000004533241255389622070000004105242241633714594_">
			<g>
				<path class="st6" d="M342.6,1302.9l8.7,4.9c0.7,0.4,1.4,0.4,2.1,0.2c0.7-0.2,1.3-0.6,1.6-1.3c0.7-1.3,0.3-3-1-3.7l-11.1-6.2
					c-0.7-0.4-1.4-0.4-2.1-0.2L342.6,1302.9z"/>
				<path class="st6" d="M346.7,1310.6c-0.7-0.4-1.4-0.4-2.1-0.2l1.8,6.3l8.7,4.9c0.7,0.4,1.4,0.4,2.1,0.2s1.3-0.6,1.6-1.3
					c0.7-1.3,0.3-3-1-3.7L346.7,1310.6z"/>
				<path class="st6" d="M350.6,1324.3c-0.7-0.4-1.4-0.4-2.1-0.2l1.8,6.3l8.7,4.9c0.7,0.4,1.4,0.4,2.1,0.2c0.7-0.2,1.3-0.6,1.6-1.3
					c0.7-1.3,0.3-3-1-3.7L350.6,1324.3z"/>
			</g>
			<g>
				<path class="st7" d="M342.6,1302.9l-4.9,8.7c-0.4,0.7-1,1.1-1.6,1.3c-0.7,0.2-1.4,0.1-2.1-0.2c-1.3-0.7-1.8-2.4-1-3.7l6.2-11.1
					c0.4-0.7,1-1.1,1.6-1.3L342.6,1302.9z"/>
				<path class="st7" d="M343,1311.6c0.4-0.7,1-1.1,1.6-1.3l1.8,6.3l-4.9,8.7c-0.4,0.7-1,1.1-1.6,1.3c-0.7,0.2-1.4,0.1-2.1-0.2
					c-1.3-0.7-1.8-2.4-1-3.7L343,1311.6z"/>
				<path class="st7" d="M346.9,1325.3c0.4-0.7,1-1.1,1.6-1.3l1.8,6.3l-4.9,8.7c-0.4,0.6-1,1.1-1.6,1.3c-0.7,0.2-1.4,0.1-2.1-0.2
					c-1.3-0.7-1.8-2.4-1-3.7L346.9,1325.3z"/>
			</g>
		</g>
	</g>
	<g id="goup-bridge_ferroviaire">
		<g>

				<ellipse id="bridge-pointer_00000005267451208447401590000009341677582159933579_" transform="matrix(0.2448 -0.9696 0.9696 0.2448 -1016.0762 1360.0723)" class="st3" cx="365.1" cy="1332.3" rx="14.7" ry="36.9"/>

				<rect id="bridge-shadow_00000129894484236195040250000003298294211908064186_" x="335.4" y="1328.5" transform="matrix(0.9435 0.3314 -0.3314 0.9435 462.1994 -45.6908)" class="st4" width="59.3" height="7.6"/>

				<rect id="bridge_00000023277840452370381880000013359389663575416497_" x="335.1" y="1328.5" transform="matrix(0.9435 0.3314 -0.3314 0.9435 462.1994 -45.6908)" class="st5" width="59.9" height="7.6"/>
		</g>
		<g id="bridge-direction-reverse-clockwise_00000010271761660925895120000001466059822670095777_">
			<g>
				<path class="st6" d="M406.8,1278.2l1.2,9.9c0.1,0.7,0.5,1.4,1,1.8s1.3,0.6,2,0.6c1.5-0.2,2.5-1.5,2.4-3l-1.6-12.6
					c-0.1-0.7-0.5-1.4-1-1.8L406.8,1278.2z"/>
				<path class="st6" d="M403.1,1286.1c-0.1-0.7-0.5-1.4-1-1.8l-4,5.1l1.2,9.9c0.1,0.7,0.5,1.4,1,1.8c0.5,0.4,1.3,0.6,2,0.6
					c1.5-0.2,2.5-1.5,2.4-3L403.1,1286.1z"/>
				<path class="st6" d="M394.3,1297.4c-0.1-0.7-0.5-1.4-1-1.8l-4,5.1l1.2,9.9c0.1,0.7,0.5,1.4,1,1.8c0.5,0.4,1.3,0.6,2,0.6
					c1.5-0.2,2.5-1.5,2.4-3L394.3,1297.4z"/>
			</g>
			<g>
				<path class="st7" d="M406.8,1278.2l-9.9,1.2c-0.7,0.1-1.4-0.1-2-0.6c-0.5-0.4-0.9-1.1-1-1.8c-0.2-1.5,0.9-2.8,2.4-3l12.6-1.6
					c0.7-0.1,1.4,0.1,2,0.6L406.8,1278.2z"/>
				<path class="st7" d="M400.1,1283.8c0.7-0.1,1.4,0.1,2,0.6l-4,5.1l-9.9,1.2c-0.7,0.1-1.4-0.1-2-0.6s-0.9-1.1-1-1.8
					c-0.2-1.5,0.9-2.8,2.4-3L400.1,1283.8z"/>
				<path class="st7" d="M391.3,1295c0.7-0.1,1.4,0.1,2,0.6l-4,5.1l-9.9,1.2c-0.7,0.1-1.4-0.1-2-0.6c-0.5-0.4-0.9-1.1-1-1.8
					c-0.2-1.5,0.9-2.8,2.4-3L391.3,1295z"/>
			</g>
		</g>
		<g id="bridge-direction-clockwise_00000059998275077931953610000000405999216426252960_">
			<g>
				<path class="st6" d="M355.5,1262.5l8,6c0.6,0.5,1.3,0.6,2,0.5s1.3-0.5,1.8-1.1c0.9-1.2,0.7-2.9-0.5-3.8l-10.1-7.6
					c-0.6-0.5-1.3-0.6-2-0.5L355.5,1262.5z"/>
				<path class="st6" d="M358.6,1270.7c-0.6-0.5-1.3-0.6-2-0.5l0.9,6.5l8,6c0.6,0.5,1.3,0.6,2,0.5c0.7-0.1,1.3-0.5,1.8-1.1
					c0.9-1.2,0.7-2.9-0.5-3.8L358.6,1270.7z"/>
				<path class="st6" d="M360.6,1284.8c-0.6-0.5-1.3-0.6-2-0.5l0.9,6.5l8,6c0.6,0.4,1.3,0.6,2,0.5c0.7-0.1,1.3-0.5,1.8-1.1
					c0.9-1.2,0.7-2.9-0.5-3.8L360.6,1284.8z"/>
			</g>
			<g>
				<path class="st7" d="M355.5,1262.5l-6,8c-0.5,0.6-1.1,1-1.8,1.1s-1.4-0.1-2-0.5c-1.2-0.9-1.4-2.6-0.5-3.8l7.6-10.1
					c0.5-0.6,1.1-1,1.8-1.1L355.5,1262.5z"/>
				<path class="st7" d="M354.8,1271.2c0.5-0.6,1.1-1,1.8-1.1l0.9,6.5l-6,8c-0.5,0.6-1.1,1-1.8,1.1s-1.4-0.1-2-0.5
					c-1.2-0.9-1.4-2.6-0.5-3.8L354.8,1271.2z"/>
				<path class="st7" d="M356.8,1285.3c0.5-0.6,1.1-1,1.8-1.1l0.9,6.5l-6,8c-0.5,0.6-1.1,1-1.8,1.1s-1.4-0.1-2-0.5
					c-1.2-0.9-1.4-2.6-0.5-3.8L356.8,1285.3z"/>
			</g>
		</g>
	</g>
	<g id="goup-bridge_fragnee">
		<g>

				<ellipse id="bridge-pointer_00000163064342448622345130000004920618146055723661_" transform="matrix(0.9669 -0.2551 0.2551 0.9669 -290.5675 131.3903)" class="st3" cx="361.3" cy="1186" rx="38.7" ry="20"/>

				<rect id="bridge-shadow_00000172424616178544758670000012156663493327431060_" x="330.2" y="1182" transform="matrix(0.9669 -0.2551 0.2551 0.9669 -290.5675 131.3903)" class="st4" width="62.2" height="7.9"/>

				<rect id="bridge_00000165214281322317197300000011169223074207300794_" x="330" y="1182" transform="matrix(0.9669 -0.2551 0.2551 0.9669 -290.5675 131.3903)" class="st5" width="62.7" height="8"/>
		</g>
		<g id="bridge-direction-reverse-clockwise_00000127734213462154902640000008386366950999569072_">
			<g>
				<path class="st6" d="M368,1115.8l6.3,7.7c0.5,0.6,1.1,0.9,1.8,1c0.7,0.1,1.4-0.1,2-0.6c1.2-0.9,1.3-2.7,0.4-3.8l-8-9.8
					c-0.5-0.6-1.1-0.9-1.8-1L368,1115.8z"/>
				<path class="st6" d="M369,1124.4c-0.5-0.6-1.1-0.9-1.8-1l-0.6,6.5l6.3,7.7c0.5,0.6,1.1,0.9,1.8,1c0.7,0.1,1.4-0.1,2-0.6
					c1.2-0.9,1.3-2.7,0.4-3.8L369,1124.4z"/>
				<path class="st6" d="M367.6,1138.6c-0.5-0.6-1.1-0.9-1.8-1l-0.6,6.5l6.3,7.7c0.5,0.6,1.1,0.9,1.8,1c0.7,0.1,1.4-0.1,2-0.6
					c1.2-0.9,1.3-2.7,0.4-3.8L367.6,1138.6z"/>
			</g>
			<g>
				<path class="st7" d="M368,1115.8l-7.7,6.3c-0.6,0.5-1.3,0.7-2,0.6s-1.4-0.4-1.8-1c-0.9-1.2-0.8-2.9,0.4-3.8l9.8-8
					c0.6-0.5,1.3-0.7,2-0.6L368,1115.8z"/>
				<path class="st7" d="M365.2,1124c0.6-0.5,1.3-0.7,2-0.6l-0.6,6.5l-7.7,6.3c-0.6,0.5-1.3,0.7-2,0.6c-0.7-0.1-1.4-0.4-1.8-1
					c-0.9-1.2-0.8-2.9,0.4-3.8L365.2,1124z"/>
				<path class="st7" d="M363.8,1138.2c0.6-0.5,1.3-0.7,2-0.6l-0.6,6.5l-7.7,6.3c-0.6,0.5-1.3,0.7-2,0.6s-1.4-0.4-1.8-1
					c-0.9-1.2-0.8-2.9,0.4-3.8L363.8,1138.2z"/>
			</g>
		</g>
		<g id="bridge-direction-clockwise_00000111189074536681441270000004398322376793617828_">
			<g>
				<path class="st6" d="M331.6,1123.5l9.4,3.3c0.7,0.2,1.4,0.2,2.1-0.1c0.6-0.3,1.1-0.8,1.4-1.5c0.5-1.4-0.3-3-1.7-3.4l-12-4.1
					c-0.7-0.2-1.4-0.2-2.1,0.1L331.6,1123.5z"/>
				<path class="st6" d="M337.1,1130.4c-0.7-0.2-1.4-0.2-2.1,0.1l2.9,5.9l9.4,3.3c0.7,0.2,1.4,0.2,2.1-0.1s1.1-0.8,1.4-1.5
					c0.5-1.4-0.3-3-1.7-3.4L337.1,1130.4z"/>
				<path class="st6" d="M343.3,1143.2c-0.7-0.2-1.4-0.2-2.1,0.1l2.8,5.9l9.4,3.3c0.7,0.2,1.4,0.2,2.1-0.1c0.6-0.3,1.1-0.8,1.4-1.5
					c0.5-1.4-0.3-3-1.7-3.4L343.3,1143.2z"/>
			</g>
			<g>
				<path class="st7" d="M331.6,1123.5l-3.3,9.4c-0.2,0.7-0.8,1.2-1.4,1.5s-1.4,0.4-2.1,0.1c-1.4-0.5-2.2-2-1.7-3.4l4.1-12
					c0.2-0.7,0.8-1.2,1.4-1.5L331.6,1123.5z"/>
				<path class="st7" d="M333.6,1132c0.2-0.7,0.8-1.2,1.4-1.5l2.9,5.9l-3.3,9.4c-0.2,0.7-0.8,1.2-1.4,1.5s-1.4,0.4-2.1,0.1
					c-1.4-0.5-2.2-2-1.7-3.4L333.6,1132z"/>
				<path class="st7" d="M339.9,1144.8c0.2-0.7,0.8-1.2,1.4-1.5l2.8,5.9l-3.3,9.4c-0.2,0.7-0.8,1.2-1.4,1.5
					c-0.6,0.3-1.4,0.4-2.1,0.1c-1.4-0.5-2.2-2-1.7-3.4L339.9,1144.8z"/>
			</g>
		</g>
	</g>
	<g id="goup-bridge_belle_ile">
		<g>

				<ellipse id="bridge-pointer_00000102546681246752738080000015600876743019595668_" transform="matrix(0.5973 -0.802 0.802 0.5973 -773.6066 1063.233)" class="st3" cx="672" cy="1302" rx="29" ry="16"/>

				<rect id="bridge-shadow_00000008855283000568394590000004901974303573155729_" x="648.5" y="1299" transform="matrix(0.5973 -0.802 0.802 0.5973 -773.6066 1063.233)" class="st4" width="47" height="6"/>

				<rect id="bridge_00000070815388059096410600000009205659397763176861_" x="648.5" y="1299" transform="matrix(0.5973 -0.802 0.802 0.5973 -773.6066 1063.233)" class="st5" width="47" height="6"/>
		</g>
		<g id="bridge-direction-reverse-clockwise">
			<g>
				<path class="st6" d="M633.3,1245.4l9.8,1.8c0.7,0.1,1.5,0,2-0.4c0.6-0.4,1-1,1.1-1.7c0.3-1.5-0.7-2.9-2.2-3.1l-12.5-2.3
					c-0.7-0.1-1.5,0-2,0.4L633.3,1245.4z"/>
				<path class="st6" d="M639.7,1251.3c-0.7-0.1-1.5,0-2,0.4l3.7,5.4l9.8,1.8c0.7,0.1,1.5,0,2-0.4c0.6-0.4,1-1,1.1-1.7
					c0.3-1.5-0.7-2.9-2.2-3.1L639.7,1251.3z"/>
				<path class="st6" d="M647.8,1263c-0.7-0.1-1.5,0-2,0.4l3.7,5.4l9.8,1.8c0.7,0.1,1.5,0,2-0.4c0.6-0.4,1-1,1.1-1.7
					c0.3-1.5-0.7-2.9-2.2-3.1L647.8,1263z"/>
			</g>
			<g>
				<path class="st7" d="M633.3,1245.4l-1.8,9.8c-0.1,0.7-0.6,1.3-1.1,1.7c-0.6,0.4-1.3,0.6-2,0.4c-1.5-0.3-2.4-1.7-2.2-3.1
					l2.3-12.5c0.1-0.7,0.6-1.3,1.1-1.7L633.3,1245.4z"/>
				<path class="st7" d="M636.6,1253.5c0.1-0.7,0.6-1.3,1.1-1.7l3.7,5.4l-1.8,9.8c-0.1,0.7-0.6,1.3-1.1,1.7c-0.6,0.4-1.3,0.6-2,0.4
					c-1.5-0.3-2.4-1.7-2.2-3.1L636.6,1253.5z"/>
				<path class="st7" d="M644.7,1265.2c0.1-0.7,0.6-1.3,1.1-1.7l3.7,5.4l-1.8,9.8c-0.1,0.7-0.6,1.3-1.1,1.7c-0.6,0.4-1.3,0.6-2,0.4
					c-1.5-0.3-2.4-1.7-2.2-3.1L644.7,1265.2z"/>
			</g>
		</g>
		<g id="bridge-direction-clockwise">
			<g>
				<path class="st6" d="M602.5,1291.1l8.1-5.8c0.6-0.4,1-1.1,1.1-1.8c0.1-0.7,0-1.4-0.5-2c-0.9-1.2-2.6-1.5-3.8-0.6l-10.3,7.4
					c-0.6,0.4-1,1.1-1.1,1.8L602.5,1291.1z"/>
				<path class="st6" d="M611.2,1290.6c-0.6,0.4-1,1.1-1.1,1.8l6.4,1l8.1-5.8c0.6-0.4,1-1.1,1.1-1.8c0.1-0.7,0-1.4-0.5-2
					c-0.9-1.2-2.6-1.5-3.8-0.6L611.2,1290.6z"/>
				<path class="st6" d="M625.3,1292.9c-0.6,0.4-1,1.1-1.1,1.8l6.4,1l8.1-5.8c0.6-0.4,1-1.1,1.1-1.8c0.1-0.7,0-1.4-0.5-2
					c-0.9-1.2-2.6-1.5-3.8-0.6L625.3,1292.9z"/>
			</g>
			<g>
				<path class="st7" d="M602.5,1291.1l5.8,8.1c0.4,0.6,0.6,1.3,0.5,2c-0.1,0.7-0.5,1.3-1.1,1.8c-1.2,0.9-2.9,0.6-3.8-0.6l-7.4-10.3
					c-0.4-0.6-0.6-1.3-0.5-2L602.5,1291.1z"/>
				<path class="st7" d="M610.6,1294.4c-0.4-0.6-0.6-1.3-0.5-2l6.4,1l5.8,8.1c0.4,0.6,0.6,1.3,0.5,2c-0.1,0.7-0.5,1.3-1.1,1.8
					c-1.2,0.9-2.9,0.6-3.8-0.6L610.6,1294.4z"/>
				<path class="st7" d="M624.6,1296.6c-0.4-0.6-0.6-1.3-0.5-2l6.4,1l5.8,8.1c0.4,0.6,0.6,1.3,0.5,2s-0.5,1.3-1.1,1.8
					c-1.2,0.9-2.9,0.6-3.8-0.6L624.6,1296.6z"/>
			</g>
		</g>
	</g>
	<g id="goup-bridge_namur">
		<g>

				<ellipse id="bridge-pointer_00000049192415546372556850000002893047241241679769_" class="st3" cx="540" cy="1213" rx="21" ry="29"/>

				<rect id="bridge-shadow_00000124853530902791412200000004532420376612858516_" x="516.5" y="1210" transform="matrix(0.1971 -0.9804 0.9804 0.1971 -755.6457 1503.2952)" class="st4" width="47" height="6"/>

				<rect id="bridge_00000107574401597094478650000011888370342130201019_" x="516.5" y="1210" transform="matrix(0.1971 -0.9804 0.9804 0.1971 -755.6457 1503.2952)" class="st5" width="47" height="6"/>
		</g>
		<g id="bridge-direction-reverse-clockwise_00000132795121284210115630000006849463400682682790_">
			<g>
				<path class="st6" d="M500.4,1158.6l9.8,1.9c0.7,0.1,1.5,0,2-0.4c0.6-0.4,1-1,1.1-1.7c0.3-1.5-0.7-2.9-2.1-3.2l-12.4-2.4
					c-0.7-0.1-1.5,0-2,0.4L500.4,1158.6z"/>
				<path class="st6" d="M506.8,1164.6c-0.7-0.1-1.5,0-2,0.4l3.7,5.4l9.8,1.9c0.7,0.1,1.5,0,2-0.4c0.6-0.4,1-1,1.1-1.7
					c0.3-1.5-0.7-2.9-2.1-3.2L506.8,1164.6z"/>
				<path class="st6" d="M514.7,1176.4c-0.7-0.1-1.5,0-2,0.4l3.7,5.4l9.8,1.9c0.7,0.1,1.5,0,2-0.4s1-1,1.1-1.7
					c0.3-1.5-0.7-2.9-2.1-3.2L514.7,1176.4z"/>
			</g>
			<g>
				<path class="st7" d="M500.4,1158.6l-1.9,9.8c-0.1,0.7-0.6,1.3-1.1,1.7c-0.6,0.4-1.3,0.6-2,0.4c-1.5-0.3-2.4-1.7-2.1-3.2
					l2.4-12.4c0.1-0.7,0.6-1.3,1.1-1.7L500.4,1158.6z"/>
				<path class="st7" d="M503.6,1166.7c0.1-0.7,0.6-1.3,1.1-1.7l3.7,5.4l-1.9,9.8c-0.1,0.7-0.6,1.3-1.1,1.7c-0.6,0.4-1.3,0.6-2,0.4
					c-1.5-0.3-2.4-1.7-2.1-3.2L503.6,1166.7z"/>
				<path class="st7" d="M511.6,1178.5c0.1-0.7,0.6-1.3,1.1-1.7l3.7,5.4l-1.9,9.8c-0.1,0.7-0.6,1.3-1.1,1.7c-0.6,0.4-1.3,0.6-2,0.4
					c-1.5-0.3-2.4-1.7-2.1-3.2L511.6,1178.5z"/>
			</g>
		</g>
		<g id="bridge-direction-clockwise_00000042717054363088668490000004777231528217306504_">
			<g>
				<path class="st6" d="M470.9,1198.8l8.3-5.4c0.6-0.4,1-1,1.2-1.7c0.1-0.7,0-1.4-0.4-2c-0.8-1.3-2.5-1.6-3.7-0.8l-10.6,6.9
					c-0.6,0.4-1,1-1.2,1.7L470.9,1198.8z"/>
				<path class="st6" d="M479.6,1198.7c-0.6,0.4-1,1-1.2,1.7l6.4,1.4l8.3-5.4c0.6-0.4,1-1,1.2-1.7c0.1-0.7,0-1.4-0.4-2
					c-0.8-1.3-2.5-1.6-3.7-0.8L479.6,1198.7z"/>
				<path class="st6" d="M493.5,1201.7c-0.6,0.4-1,1-1.2,1.7l6.4,1.4l8.4-5.4c0.6-0.4,1-1,1.2-1.7c0.1-0.7,0-1.4-0.4-2
					c-0.8-1.3-2.5-1.6-3.7-0.8L493.5,1201.7z"/>
			</g>
			<g>
				<path class="st7" d="M470.9,1198.8l5.4,8.3c0.4,0.6,0.5,1.4,0.4,2c-0.1,0.7-0.5,1.3-1.2,1.7c-1.3,0.8-2.9,0.5-3.7-0.8l-6.9-10.6
					c-0.4-0.6-0.5-1.4-0.4-2L470.9,1198.8z"/>
				<path class="st7" d="M478.8,1202.4c-0.4-0.6-0.5-1.4-0.4-2l6.4,1.4l5.4,8.3c0.4,0.6,0.5,1.4,0.4,2c-0.1,0.7-0.5,1.3-1.2,1.7
					c-1.3,0.8-2.9,0.5-3.7-0.8L478.8,1202.4z"/>
				<path class="st7" d="M492.7,1205.4c-0.4-0.6-0.5-1.4-0.4-2l6.4,1.4l5.4,8.3c0.4,0.6,0.5,1.4,0.4,2c-0.1,0.7-0.5,1.3-1.2,1.7
					c-1.3,0.8-2.9,0.5-3.7-0.8L492.7,1205.4z"/>
			</g>
		</g>
	</g>
	<g id="goup-bridge_grosses_battes">
		<g>

				<ellipse id="bridge-pointer_00000028325655633260802450000013495390472585203876_" class="st3" cx="837.1" cy="1396.3" rx="21" ry="29"/>

				<rect id="bridge-shadow_00000070830957402878028220000017109460335414053799_" x="813.6" y="1393.3" transform="matrix(0.1971 -0.9804 0.9804 0.1971 -696.7858 1941.714)" class="st4" width="47" height="6"/>

				<rect id="bridge_00000100375404386593644320000006373049264520905370_" x="813.6" y="1393.3" transform="matrix(0.1971 -0.9804 0.9804 0.1971 -696.7858 1941.714)" class="st5" width="47" height="6"/>
		</g>
		<g id="bridge-direction-reverse-clockwise_00000065767886770013851980000000279852419389545104_">
			<g>
				<path class="st6" d="M797.5,1341.9l9.8,1.9c0.7,0.1,1.5,0,2-0.4c0.6-0.4,1-1,1.1-1.7c0.3-1.5-0.7-2.9-2.1-3.2l-12.4-2.4
					c-0.7-0.1-1.5,0-2,0.4L797.5,1341.9z"/>
				<path class="st6" d="M803.9,1347.9c-0.7-0.1-1.5,0-2,0.4l3.7,5.4l9.8,1.9c0.7,0.1,1.5,0,2-0.4c0.6-0.4,1-1,1.1-1.7
					c0.3-1.5-0.7-2.9-2.1-3.2L803.9,1347.9z"/>
				<path class="st6" d="M811.8,1359.7c-0.7-0.1-1.5,0-2,0.4l3.7,5.4l9.8,1.9c0.7,0.1,1.5,0,2-0.4c0.6-0.4,1-1,1.1-1.7
					c0.3-1.5-0.7-2.9-2.1-3.2L811.8,1359.7z"/>
			</g>
			<g>
				<path class="st7" d="M797.5,1341.9l-1.9,9.8c-0.1,0.7-0.6,1.3-1.1,1.7s-1.3,0.6-2,0.4c-1.5-0.3-2.4-1.7-2.1-3.2l2.4-12.4
					c0.1-0.7,0.6-1.3,1.1-1.7L797.5,1341.9z"/>
				<path class="st7" d="M800.7,1350c0.1-0.7,0.6-1.3,1.1-1.7l3.7,5.4l-1.9,9.8c-0.1,0.7-0.6,1.3-1.1,1.7s-1.3,0.6-2,0.4
					c-1.5-0.3-2.4-1.7-2.1-3.2L800.7,1350z"/>
				<path class="st7" d="M808.7,1361.8c0.1-0.7,0.6-1.3,1.1-1.7l3.7,5.4l-1.9,9.8c-0.1,0.7-0.6,1.3-1.1,1.7c-0.6,0.4-1.3,0.6-2,0.4
					c-1.5-0.3-2.4-1.7-2.1-3.2L808.7,1361.8z"/>
			</g>
		</g>
		<g id="bridge-direction-clockwise_00000034772477169547078140000002127902636999353777_">
			<g>
				<path class="st6" d="M768,1382.1l8.3-5.4c0.6-0.4,1-1,1.2-1.7c0.1-0.7,0-1.4-0.4-2c-0.8-1.3-2.5-1.6-3.7-0.8l-10.6,6.9
					c-0.6,0.4-1,1-1.2,1.7L768,1382.1z"/>
				<path class="st6" d="M776.7,1382c-0.6,0.4-1,1-1.2,1.7l6.4,1.4l8.3-5.4c0.6-0.4,1-1,1.2-1.7c0.1-0.7,0-1.4-0.4-2
					c-0.8-1.3-2.5-1.6-3.7-0.8L776.7,1382z"/>
				<path class="st6" d="M790.6,1384.9c-0.6,0.4-1,1-1.2,1.7l6.4,1.4l8.4-5.4c0.6-0.4,1-1,1.2-1.7c0.1-0.7,0-1.4-0.4-2
					c-0.8-1.3-2.5-1.6-3.7-0.8L790.6,1384.9z"/>
			</g>
			<g>
				<path class="st7" d="M768,1382.1l5.4,8.3c0.4,0.6,0.5,1.4,0.4,2c-0.1,0.7-0.5,1.3-1.2,1.7c-1.3,0.8-2.9,0.5-3.7-0.8l-6.9-10.6
					c-0.4-0.6-0.5-1.4-0.4-2L768,1382.1z"/>
				<path class="st7" d="M775.9,1385.7c-0.4-0.6-0.5-1.4-0.4-2l6.4,1.4l5.4,8.3c0.4,0.6,0.5,1.4,0.4,2c-0.1,0.7-0.5,1.3-1.2,1.7
					c-1.3,0.8-2.9,0.5-3.7-0.8L775.9,1385.7z"/>
				<path class="st7" d="M789.9,1388.7c-0.4-0.6-0.5-1.4-0.4-2l6.4,1.4l5.4,8.3c0.4,0.6,0.5,1.4,0.4,2s-0.5,1.3-1.2,1.7
					c-1.3,0.8-2.9,0.5-3.7-0.8L789.9,1388.7z"/>
			</g>
		</g>
	</g>
	<g id="goup-bridge_fetinne">
		<g>

				<ellipse id="bridge-pointer_00000074431247742891321140000016412690542163910061_" transform="matrix(0.6129 -0.7902 0.7902 0.6129 -746.146 781.0035)" class="st3" cx="424" cy="1152" rx="29" ry="20"/>

				<rect id="bridge-shadow_00000165929549056333727620000006088126636909463955_" x="400.5" y="1149" transform="matrix(0.5593 -0.829 0.829 0.5593 -768.107 859.1503)" class="st4" width="47" height="6"/>

				<rect id="bridge_00000169530128604982929650000002078745112638784939_" x="400.5" y="1149" transform="matrix(0.5593 -0.829 0.829 0.5593 -768.107 859.1503)" class="st5" width="47" height="6"/>
		</g>
		<g id="bridge-direction-reverse-clockwise_00000101789435822408783510000000753434227894159263_">
			<g>
				<path class="st6" d="M394.7,1089.3l9.4,3.3c0.7,0.2,1.4,0.2,2.1-0.1s1.1-0.8,1.4-1.5c0.5-1.4-0.2-3-1.6-3.5l-11.9-4.2
					c-0.7-0.2-1.4-0.2-2.1,0.1L394.7,1089.3z"/>
				<path class="st6" d="M400.1,1096.2c-0.7-0.2-1.4-0.2-2.1,0.1l2.8,5.9l9.4,3.3c0.7,0.2,1.4,0.2,2.1-0.1s1.1-0.8,1.4-1.5
					c0.5-1.4-0.2-3-1.6-3.5L400.1,1096.2z"/>
				<path class="st6" d="M406.3,1109c-0.7-0.2-1.4-0.2-2.1,0.1l2.8,5.9l9.4,3.3c0.7,0.2,1.4,0.2,2.1-0.1s1.1-0.8,1.4-1.5
					c0.5-1.4-0.2-3-1.6-3.5L406.3,1109z"/>
			</g>
			<g>
				<path class="st7" d="M394.7,1089.3l-3.3,9.4c-0.2,0.7-0.8,1.2-1.4,1.5s-1.4,0.4-2.1,0.1c-1.4-0.5-2.1-2-1.6-3.5l4.2-11.9
					c0.2-0.7,0.8-1.2,1.4-1.5L394.7,1089.3z"/>
				<path class="st7" d="M396.7,1097.8c0.2-0.7,0.8-1.2,1.4-1.5l2.8,5.9l-3.3,9.4c-0.2,0.7-0.8,1.2-1.4,1.5s-1.4,0.4-2.1,0.1
					c-1.4-0.5-2.1-2-1.6-3.5L396.7,1097.8z"/>
				<path class="st7" d="M402.8,1110.7c0.2-0.7,0.8-1.2,1.4-1.5l2.8,5.9l-3.3,9.4c-0.3,0.7-0.8,1.2-1.4,1.5s-1.4,0.4-2.1,0.1
					c-1.4-0.5-2.1-2-1.6-3.5L402.8,1110.7z"/>
			</g>
		</g>
		<g id="bridge-direction-clockwise_00000080894361908643657690000005733706689930802585_">
			<g>
				<path class="st6" d="M361.2,1122.3l9.4-3.3c0.7-0.2,1.2-0.8,1.5-1.4c0.3-0.6,0.4-1.4,0.1-2.1c-0.5-1.4-2-2.2-3.4-1.7l-12,4.2
					c-0.7,0.2-1.2,0.8-1.5,1.4L361.2,1122.3z"/>
				<path class="st6" d="M369.7,1124.3c-0.7,0.2-1.2,0.8-1.5,1.4l5.9,2.8l9.4-3.3c0.7-0.2,1.2-0.8,1.5-1.4c0.3-0.6,0.4-1.4,0.1-2.1
					c-0.5-1.4-2-2.2-3.4-1.7L369.7,1124.3z"/>
				<path class="st6" d="M382.5,1130.5c-0.7,0.2-1.2,0.8-1.5,1.4l5.9,2.8l9.4-3.3c0.7-0.2,1.2-0.8,1.5-1.4c0.3-0.6,0.4-1.4,0.1-2.1
					c-0.5-1.4-2-2.2-3.4-1.7L382.5,1130.5z"/>
			</g>
			<g>
				<path class="st7" d="M361.2,1122.3l3.3,9.4c0.2,0.7,0.2,1.4-0.1,2.1c-0.3,0.6-0.8,1.1-1.5,1.4c-1.4,0.5-3-0.3-3.4-1.7l-4.2-12
					c-0.2-0.7-0.2-1.4,0.1-2.1L361.2,1122.3z"/>
				<path class="st7" d="M368,1127.7c-0.2-0.7-0.2-1.4,0.1-2.1l5.9,2.8l3.3,9.4c0.2,0.7,0.2,1.4-0.1,2.1c-0.3,0.6-0.8,1.1-1.5,1.4
					c-1.4,0.5-3-0.3-3.4-1.7L368,1127.7z"/>
				<path class="st7" d="M380.9,1133.9c-0.2-0.7-0.2-1.4,0.1-2.1l5.9,2.8l3.3,9.4c0.2,0.7,0.2,1.4-0.1,2.1c-0.3,0.6-0.8,1.1-1.5,1.4
					c-1.4,0.5-3-0.3-3.4-1.7L380.9,1133.9z"/>
			</g>
		</g>
	</g>
	<g id="goup-bridge_gramme">
		<g>

				<ellipse id="bridge-pointer_00000162345359814425785230000011746778233986117043_" class="st3" cx="399.7" cy="1124.9" rx="20.7" ry="29"/>

				<rect id="bridge-shadow_00000103241549690154709610000001591249480282460294_" x="376.2" y="1121.9" transform="matrix(-6.743617e-02 -0.9977 0.9977 -6.743617e-02 -695.6738 1599.4757)" class="st4" width="47" height="6"/>

				<rect id="bridge_00000034084457782498752710000003442206059816915089_" x="376.2" y="1121.9" transform="matrix(-6.743617e-02 -0.9977 0.9977 -6.743617e-02 -695.6738 1599.4757)" class="st5" width="47" height="6"/>
		</g>
		<g id="bridge-direction-reverse-clockwise_00000148637170840927535370000001857371587770394006_">
			<g>
				<path class="st6" d="M381.5,1057.8l8.7,4.8c0.7,0.4,1.4,0.4,2.1,0.2c0.7-0.2,1.3-0.6,1.6-1.3c0.7-1.3,0.3-3-1-3.7l-11.1-6.2
					c-0.7-0.4-1.4-0.4-2.1-0.2L381.5,1057.8z"/>
				<path class="st6" d="M385.6,1065.5c-0.7-0.4-1.4-0.4-2.1-0.2l1.8,6.3l8.7,4.8c0.7,0.4,1.4,0.4,2.1,0.2c0.7-0.2,1.3-0.6,1.6-1.3
					c0.7-1.3,0.3-3-1-3.7L385.6,1065.5z"/>
				<path class="st6" d="M389.5,1079.2c-0.7-0.4-1.4-0.4-2.1-0.2l1.8,6.3l8.7,4.8c0.7,0.4,1.4,0.4,2.1,0.2c0.7-0.2,1.3-0.6,1.6-1.3
					c0.7-1.3,0.3-3-1-3.7L389.5,1079.2z"/>
			</g>
			<g>
				<path class="st7" d="M381.5,1057.8l-4.8,8.7c-0.4,0.7-1,1.1-1.6,1.3c-0.7,0.2-1.4,0.1-2.1-0.2c-1.3-0.7-1.8-2.4-1-3.7l6.2-11.1
					c0.4-0.7,1-1.1,1.6-1.3L381.5,1057.8z"/>
				<path class="st7" d="M382,1066.5c0.4-0.7,1-1.1,1.6-1.3l1.8,6.3l-4.8,8.7c-0.4,0.7-1,1.1-1.6,1.3s-1.4,0.1-2.1-0.2
					c-1.3-0.7-1.8-2.4-1-3.7L382,1066.5z"/>
				<path class="st7" d="M385.9,1080.2c0.4-0.7,1-1.1,1.6-1.3l1.8,6.3l-4.8,8.7c-0.4,0.6-1,1.1-1.6,1.3c-0.7,0.2-1.4,0.1-2.1-0.2
					c-1.3-0.7-1.8-2.4-1-3.7L385.9,1080.2z"/>
			</g>
		</g>
		<g id="bridge-direction-clockwise_00000066494682310051043470000013710964466642371222_">
			<g>
				<path class="st6" d="M332.7,1105.2l8.8-4.7c0.7-0.4,1.1-0.9,1.3-1.6c0.2-0.7,0.1-1.4-0.2-2.1c-0.7-1.3-2.3-1.8-3.7-1.1l-11.2,6
					c-0.7,0.4-1.1,0.9-1.3,1.6L332.7,1105.2z"/>
				<path class="st6" d="M341.4,1105.9c-0.7,0.4-1.1,0.9-1.3,1.6l6.3,1.9l8.8-4.7c0.7-0.4,1.1-0.9,1.3-1.6s0.1-1.4-0.2-2.1
					c-0.7-1.3-2.3-1.8-3.7-1.1L341.4,1105.9z"/>
				<path class="st6" d="M355,1110c-0.7,0.4-1.1,0.9-1.3,1.6l6.2,1.9l8.8-4.7c0.7-0.4,1.1-0.9,1.3-1.6c0.2-0.7,0.1-1.4-0.2-2.1
					c-0.7-1.3-2.3-1.8-3.7-1.1L355,1110z"/>
			</g>
			<g>
				<path class="st7" d="M332.7,1105.2l4.7,8.8c0.4,0.7,0.4,1.4,0.2,2.1c-0.2,0.7-0.7,1.2-1.3,1.6c-1.3,0.7-3,0.2-3.7-1.1l-6-11.2
					c-0.4-0.7-0.4-1.4-0.2-2.1L332.7,1105.2z"/>
				<path class="st7" d="M340.3,1109.5c-0.4-0.7-0.4-1.4-0.2-2.1l6.3,1.9l4.7,8.8c0.4,0.7,0.4,1.4,0.2,2.1s-0.7,1.2-1.3,1.6
					c-1.3,0.7-3,0.2-3.7-1.1L340.3,1109.5z"/>
				<path class="st7" d="M353.9,1113.6c-0.4-0.7-0.4-1.4-0.2-2.1l6.2,1.9l4.7,8.8c0.3,0.7,0.4,1.4,0.2,2.1c-0.2,0.7-0.7,1.2-1.3,1.6
					c-1.3,0.7-3,0.2-3.7-1.1L353.9,1113.6z"/>
			</g>
		</g>
	</g>
	<g id="goup-bridge_mativa">
		<g>
			<circle id="bridge-pointer_00000170255040822799854820000013230265481103774349_" class="st3" cx="357" cy="1027" r="16"/>

				<rect id="bridge-shadow_00000101093966237993263440000000090712430375134621_" x="344" y="1025.3" transform="matrix(0.9972 -7.468707e-02 7.468707e-02 0.9972 -75.7065 29.5317)" class="st4" width="25.9" height="3.3"/>

				<rect id="bridge_00000094601620768182372240000013387546544091988380_" x="344" y="1025.3" transform="matrix(0.9972 -7.468707e-02 7.468707e-02 0.9972 -75.7065 29.5317)" class="st5" width="25.9" height="3.3"/>
		</g>
		<g id="bridge-direction-reverse-clockwise_00000106855651474850994360000008468971013127933863_">
			<g>
				<path class="st6" d="M352.6,975l7.1,6.1c0.5,0.5,1.2,0.6,1.9,0.6s1.3-0.4,1.7-0.9c0.9-1.1,0.8-2.7-0.3-3.6l-9.1-7.7
					c-0.5-0.5-1.2-0.6-1.9-0.6L352.6,975z"/>
				<path class="st6" d="M355,982.9c-0.5-0.5-1.2-0.6-1.9-0.6l0.5,6.1l7.1,6.1c0.5,0.5,1.2,0.6,1.9,0.6c0.6-0.1,1.3-0.4,1.7-0.9
					c0.9-1.1,0.8-2.7-0.3-3.6L355,982.9z"/>
				<path class="st6" d="M356.1,996.3c-0.5-0.5-1.2-0.6-1.9-0.6l0.5,6.1l7.1,6.1c0.5,0.5,1.2,0.6,1.9,0.6c0.6-0.1,1.3-0.4,1.7-0.9
					c0.9-1.1,0.8-2.7-0.3-3.6L356.1,996.3z"/>
			</g>
			<g>
				<path class="st7" d="M352.6,975l-6.1,7.1c-0.5,0.5-1.1,0.8-1.7,0.9c-0.6,0.1-1.3-0.1-1.9-0.6c-1.1-0.9-1.2-2.5-0.3-3.6l7.7-9.1
					c0.5-0.5,1.1-0.8,1.7-0.9L352.6,975z"/>
				<path class="st7" d="M351.4,983.2c0.5-0.5,1.1-0.8,1.7-0.9l0.5,6.1l-6.1,7.1c-0.5,0.5-1.1,0.8-1.7,0.9s-1.3-0.1-1.9-0.6
					c-1.1-0.9-1.2-2.5-0.3-3.6L351.4,983.2z"/>
				<path class="st7" d="M352.5,996.5c0.5-0.5,1.1-0.8,1.7-0.9l0.5,6.1l-6.1,7.1c-0.5,0.5-1.1,0.8-1.7,0.9c-0.6,0.1-1.3-0.1-1.9-0.6
					c-1.1-0.9-1.2-2.5-0.3-3.6L352.5,996.5z"/>
			</g>
		</g>
		<g id="bridge-direction-clockwise_00000137119727989176864280000008489439727138351280_">
			<g>
				<path class="st6" d="M363.2,1077.7l-6.6-5.5c-0.5-0.4-1.1-0.6-1.7-0.5c-0.6,0-1.2,0.3-1.6,0.8c-0.8,1-0.7,2.5,0.3,3.3l8.3,7
					c0.5,0.4,1.1,0.6,1.7,0.5L363.2,1077.7z"/>
				<path class="st6" d="M360.9,1070.5c0.5,0.4,1.1,0.6,1.7,0.5l-0.5-5.6l-6.6-5.5c-0.5-0.4-1.1-0.6-1.7-0.5c-0.6,0-1.2,0.3-1.6,0.8
					c-0.8,1-0.7,2.5,0.3,3.3L360.9,1070.5z"/>
				<path class="st6" d="M359.9,1058.3c0.5,0.4,1.1,0.6,1.7,0.5l-0.5-5.6l-6.6-5.5c-0.5-0.4-1.1-0.6-1.7-0.5c-0.6,0-1.2,0.3-1.6,0.8
					c-0.8,1-0.7,2.5,0.3,3.3L359.9,1058.3z"/>
			</g>
			<g>
				<path class="st7" d="M363.2,1077.7l5.5-6.6c0.4-0.5,1-0.8,1.6-0.8s1.2,0.1,1.7,0.5c1,0.8,1.1,2.3,0.3,3.3l-7,8.3
					c-0.4,0.5-1,0.8-1.6,0.8L363.2,1077.7z"/>
				<path class="st7" d="M364.2,1070.2c-0.4,0.5-1,0.8-1.6,0.8l-0.5-5.6l5.5-6.6c0.4-0.5,1-0.8,1.6-0.8s1.2,0.1,1.7,0.5
					c1,0.8,1.1,2.3,0.3,3.3L364.2,1070.2z"/>
				<path class="st7" d="M363.2,1058c-0.4,0.5-1,0.8-1.6,0.8l-0.5-5.6l5.5-6.6c0.4-0.5,1-0.8,1.6-0.8c0.6-0.1,1.2,0.1,1.7,0.5
					c1,0.8,1.1,2.3,0.3,3.3L363.2,1058z"/>
			</g>
		</g>
	</g>
	<g id="goup-bridge_parc">
		<g>
			<circle id="bridge-pointer_00000147940338919737759270000007981928749193959570_" class="st3" cx="332" cy="843" r="16"/>

				<rect id="bridge-shadow_00000154399650296730489000000016519029587284485545_" x="319" y="841.3" transform="matrix(0.9972 -7.468707e-02 7.468707e-02 0.9972 -62.0339 27.1506)" class="st4" width="25.9" height="3.3"/>

				<rect id="bridge_00000183214331677042596240000015914319965553237403_" x="319" y="841.3" transform="matrix(0.9972 -7.468707e-02 7.468707e-02 0.9972 -62.0339 27.1506)" class="st5" width="25.9" height="3.3"/>
		</g>
		<g id="bridge-direction-reverse-clockwise_00000057854719091750427900000010719889113131805621_">
			<g>
				<path class="st6" d="M326.7,791.1l7.2,6c0.5,0.4,1.2,0.6,1.9,0.6c0.6-0.1,1.3-0.4,1.7-0.9c0.9-1.1,0.7-2.7-0.3-3.6l-9.2-7.6
					c-0.5-0.4-1.2-0.6-1.9-0.6L326.7,791.1z"/>
				<path class="st6" d="M329.3,798.9c-0.5-0.4-1.2-0.6-1.9-0.6l0.6,6.1l7.2,6c0.5,0.4,1.2,0.6,1.9,0.6c0.6-0.1,1.3-0.4,1.7-0.9
					c0.9-1.1,0.7-2.7-0.3-3.6L329.3,798.9z"/>
				<path class="st6" d="M330.6,812.3c-0.5-0.4-1.2-0.6-1.9-0.6l0.6,6.1l7.2,6c0.5,0.4,1.2,0.6,1.9,0.6c0.6-0.1,1.3-0.4,1.7-0.9
					c0.9-1.1,0.7-2.7-0.3-3.6L330.6,812.3z"/>
			</g>
			<g>
				<path class="st7" d="M326.7,791.1l-6,7.2c-0.4,0.5-1.1,0.9-1.7,0.9c-0.6,0.1-1.3-0.1-1.9-0.6c-1.1-0.9-1.2-2.5-0.3-3.6l7.6-9.2
					c0.4-0.5,1.1-0.9,1.7-0.9L326.7,791.1z"/>
				<path class="st7" d="M325.7,799.3c0.4-0.5,1.1-0.9,1.7-0.9l0.6,6.1l-6,7.2c-0.4,0.5-1.1,0.9-1.7,0.9c-0.6,0.1-1.3-0.1-1.9-0.6
					c-1.1-0.9-1.2-2.5-0.3-3.6L325.7,799.3z"/>
				<path class="st7" d="M327,812.6c0.4-0.5,1.1-0.9,1.7-0.9l0.6,6.1l-6,7.2c-0.4,0.5-1.1,0.9-1.7,0.9c-0.6,0.1-1.3-0.1-1.9-0.6
					c-1.1-0.9-1.2-2.5-0.3-3.6L327,812.6z"/>
			</g>
		</g>
		<g id="bridge-direction-clockwise_00000134965943871841006610000005112968791553523336_">
			<g>
				<path class="st6" d="M338.2,893.7l-6.6-5.5c-0.5-0.4-1.1-0.6-1.7-0.5c-0.6,0-1.2,0.3-1.6,0.8c-0.8,1-0.7,2.5,0.3,3.3l8.3,7
					c0.5,0.4,1.1,0.6,1.7,0.5L338.2,893.7z"/>
				<path class="st6" d="M335.9,886.5c0.5,0.4,1.1,0.6,1.7,0.5l-0.5-5.6l-6.6-5.5c-0.5-0.4-1.1-0.6-1.7-0.5c-0.6,0-1.2,0.3-1.6,0.8
					c-0.8,1-0.7,2.5,0.3,3.3L335.9,886.5z"/>
				<path class="st6" d="M334.9,874.3c0.5,0.4,1.1,0.6,1.7,0.5l-0.5-5.6l-6.6-5.5c-0.5-0.4-1.1-0.6-1.7-0.5c-0.6,0-1.2,0.3-1.6,0.8
					c-0.8,1-0.7,2.5,0.3,3.3L334.9,874.3z"/>
			</g>
			<g>
				<path class="st7" d="M338.2,893.7l5.5-6.6c0.4-0.5,1-0.8,1.6-0.8s1.2,0.1,1.7,0.5c1,0.8,1.1,2.3,0.3,3.3l-7,8.3
					c-0.4,0.5-1,0.8-1.6,0.8L338.2,893.7z"/>
				<path class="st7" d="M339.2,886.2c-0.4,0.5-1,0.8-1.6,0.8l-0.5-5.6l5.5-6.6c0.4-0.5,1-0.8,1.6-0.8s1.2,0.1,1.7,0.5
					c1,0.8,1.1,2.3,0.3,3.3L339.2,886.2z"/>
				<path class="st7" d="M338.2,874c-0.4,0.5-1,0.8-1.6,0.8l-0.5-5.6l5.5-6.6c0.4-0.5,1-0.8,1.6-0.8c0.6,0,1.2,0.1,1.7,0.5
					c1,0.8,1.1,2.3,0.3,3.3L338.2,874z"/>
			</g>
		</g>
	</g>
	<g id="goup-bridge_huy">
		<g>
			<circle id="bridge-pointer_00000031916800936557107240000018058644620187428280_" class="st3" cx="316" cy="715" r="16"/>

				<rect id="bridge-shadow_00000101797347940377255920000004611786813381976993_" x="303" y="713.3" transform="matrix(0.9972 -7.468707e-02 7.468707e-02 0.9972 -52.5187 25.5981)" class="st4" width="25.9" height="3.3"/>

				<rect id="bridge_00000041284940834506471060000011580627886821834905_" x="303" y="713.3" transform="matrix(0.9972 -7.468707e-02 7.468707e-02 0.9972 -52.5187 25.5981)" class="st5" width="25.9" height="3.3"/>
		</g>
		<g id="bridge-direction-reverse-clockwise_00000133504086173504320670000009670868152143283644_">
			<g>
				<path class="st6" d="M310.7,663.1l7.2,6c0.5,0.4,1.2,0.6,1.9,0.6c0.6-0.1,1.3-0.4,1.7-0.9c0.9-1.1,0.7-2.7-0.3-3.6l-9.2-7.6
					c-0.5-0.4-1.2-0.6-1.9-0.6L310.7,663.1z"/>
				<path class="st6" d="M313.3,670.9c-0.5-0.4-1.2-0.6-1.9-0.6l0.6,6.1l7.2,6c0.5,0.4,1.2,0.6,1.9,0.6c0.6-0.1,1.3-0.4,1.7-0.9
					c0.9-1.1,0.7-2.7-0.3-3.6L313.3,670.9z"/>
				<path class="st6" d="M314.6,684.3c-0.5-0.4-1.2-0.6-1.9-0.6l0.6,6.1l7.2,6c0.5,0.4,1.2,0.6,1.9,0.6c0.6-0.1,1.3-0.4,1.7-0.9
					c0.9-1.1,0.7-2.7-0.3-3.6L314.6,684.3z"/>
			</g>
			<g>
				<path class="st7" d="M310.7,663.1l-6,7.2c-0.4,0.5-1.1,0.9-1.7,0.9c-0.6,0.1-1.3-0.1-1.9-0.6c-1.1-0.9-1.2-2.5-0.3-3.6l7.6-9.2
					c0.4-0.5,1.1-0.9,1.7-0.9L310.7,663.1z"/>
				<path class="st7" d="M309.7,671.3c0.4-0.5,1.1-0.9,1.7-0.9l0.6,6.1l-6,7.2c-0.4,0.5-1.1,0.9-1.7,0.9c-0.6,0.1-1.3-0.1-1.9-0.6
					c-1.1-0.9-1.2-2.5-0.3-3.6L309.7,671.3z"/>
				<path class="st7" d="M311,684.6c0.4-0.5,1.1-0.9,1.7-0.9l0.6,6.1l-6,7.2c-0.4,0.5-1.1,0.9-1.7,0.9c-0.6,0.1-1.3-0.1-1.9-0.6
					c-1.1-0.9-1.2-2.5-0.3-3.6L311,684.6z"/>
			</g>
		</g>
		<g id="bridge-direction-clockwise_00000130645280146192049070000001690124601879616908_">
			<g>
				<path class="st6" d="M322.2,765.7l-6.6-5.5c-0.5-0.4-1.1-0.6-1.7-0.5c-0.6,0-1.2,0.3-1.6,0.8c-0.8,1-0.7,2.5,0.3,3.3l8.3,7
					c0.5,0.4,1.1,0.6,1.7,0.5L322.2,765.7z"/>
				<path class="st6" d="M319.9,758.5c0.5,0.4,1.1,0.6,1.7,0.5l-0.5-5.6l-6.6-5.5c-0.5-0.4-1.1-0.6-1.7-0.5c-0.6,0-1.2,0.3-1.6,0.8
					c-0.8,1-0.7,2.5,0.3,3.3L319.9,758.5z"/>
				<path class="st6" d="M318.9,746.3c0.5,0.4,1.1,0.6,1.7,0.5l-0.5-5.6l-6.6-5.5c-0.5-0.4-1.1-0.6-1.7-0.5c-0.6,0-1.2,0.3-1.6,0.8
					c-0.8,1-0.7,2.5,0.3,3.3L318.9,746.3z"/>
			</g>
			<g>
				<path class="st7" d="M322.2,765.7l5.5-6.6c0.4-0.5,1-0.8,1.6-0.8s1.2,0.1,1.7,0.5c1,0.8,1.1,2.3,0.3,3.3l-7,8.3
					c-0.4,0.5-1,0.8-1.6,0.8L322.2,765.7z"/>
				<path class="st7" d="M323.2,758.2c-0.4,0.5-1,0.8-1.6,0.8l-0.5-5.6l5.5-6.6c0.4-0.5,1-0.8,1.6-0.8s1.2,0.1,1.7,0.5
					c1,0.8,1.1,2.3,0.3,3.3L323.2,758.2z"/>
				<path class="st7" d="M322.2,746c-0.4,0.5-1,0.8-1.6,0.8l-0.5-5.6l5.5-6.6c0.4-0.5,1-0.8,1.6-0.8c0.6,0,1.2,0.1,1.7,0.5
					c1,0.8,1.1,2.3,0.3,3.3L322.2,746z"/>
			</g>
		</g>
	</g>
	<g id="goup-bridge_longdoz">
		<g>
			<circle id="bridge-pointer_00000098203638992652400740000011277344152980684433_" class="st3" cx="360.2" cy="561.6" r="16"/>

				<rect id="bridge-shadow_00000172441610621556104630000012394803823210717618_" x="347.3" y="559.9" transform="matrix(0.5481 0.8364 -0.8364 0.5481 632.4953 -47.5169)" class="st4" width="25.9" height="3.3"/>

				<rect id="bridge_00000169516863841925952840000016166828883095341733_" x="347.3" y="559.9" transform="matrix(0.5481 0.8364 -0.8364 0.5481 632.4953 -47.5169)" class="st5" width="25.9" height="3.3"/>
		</g>
		<g id="bridge-direction-reverse-clockwise_00000150090783768991160000000014128877446422848681_">
			<g>
				<path class="st6" d="M408.5,541.8l-3.7,8.6c-0.3,0.6-0.3,1.3,0,2s0.7,1.1,1.4,1.4c1.3,0.5,2.8-0.1,3.3-1.3l4.7-11
					c0.3-0.6,0.3-1.3,0-2L408.5,541.8z"/>
				<path class="st6" d="M401.7,546.5c0.3-0.6,0.3-1.3,0-2l-5.7,2.3l-3.7,8.6c-0.3,0.6-0.3,1.3,0,2c0.2,0.6,0.7,1.1,1.4,1.4
					c1.3,0.5,2.8-0.1,3.3-1.3L401.7,546.5z"/>
				<path class="st6" d="M389.3,551.5c0.3-0.6,0.3-1.3,0-2l-5.7,2.3l-3.7,8.6c-0.3,0.6-0.3,1.3,0,2c0.2,0.6,0.7,1.1,1.4,1.4
					c1.3,0.5,2.8-0.1,3.3-1.3L389.3,551.5z"/>
			</g>
			<g>
				<path class="st7" d="M408.5,541.8l-8.6-3.7c-0.6-0.3-1.1-0.8-1.4-1.4c-0.2-0.6-0.3-1.3,0-2c0.5-1.3,2-1.9,3.3-1.3l11,4.7
					c0.6,0.3,1.1,0.8,1.4,1.4L408.5,541.8z"/>
				<path class="st7" d="M400.4,543.2c0.6,0.3,1.1,0.8,1.4,1.4l-5.7,2.3l-8.6-3.7c-0.6-0.3-1.1-0.8-1.4-1.4c-0.2-0.6-0.3-1.3,0-2
					c0.5-1.3,2-1.9,3.3-1.3L400.4,543.2z"/>
				<path class="st7" d="M387.9,548.2c0.6,0.3,1.1,0.8,1.4,1.4l-5.7,2.3l-8.6-3.7c-0.6-0.3-1.1-0.8-1.4-1.4c-0.2-0.6-0.3-1.3,0-2
					c0.5-1.3,2-1.9,3.3-1.3L387.9,548.2z"/>
			</g>
		</g>
		<g id="bridge-direction-clockwise_00000100348534660067289830000004404167408519961239_">
			<g>
				<path class="st6" d="M323.4,596.9l0.5-8.6c0-0.6-0.2-1.2-0.6-1.7c-0.4-0.4-1-0.7-1.6-0.8c-1.3-0.1-2.4,0.9-2.5,2.2l-0.6,10.9
					c0,0.6,0.2,1.2,0.6,1.7L323.4,596.9z"/>
				<path class="st6" d="M327.8,590.8c0,0.6,0.2,1.2,0.6,1.7l4.2-3.7l0.5-8.6c0-0.6-0.2-1.2-0.6-1.7c-0.4-0.4-1-0.7-1.6-0.8
					c-1.3-0.1-2.4,0.9-2.5,2.2L327.8,590.8z"/>
				<path class="st6" d="M337,582.7c0,0.6,0.2,1.2,0.6,1.7l4.2-3.7l0.5-8.6c0-0.6-0.2-1.2-0.6-1.7c-0.4-0.4-1-0.7-1.6-0.8
					c-1.3-0.1-2.4,0.9-2.5,2.2L337,582.7z"/>
			</g>
			<g>
				<path class="st7" d="M323.4,596.9l8.6,0.5c0.6,0,1.2,0.3,1.6,0.8s0.6,1,0.6,1.7c-0.1,1.3-1.2,2.3-2.5,2.2l-10.9-0.6
					c-0.6,0-1.2-0.3-1.6-0.8L323.4,596.9z"/>
				<path class="st7" d="M330,593.3c-0.6,0-1.2-0.3-1.6-0.8l4.2-3.7l8.6,0.5c0.6,0,1.2,0.3,1.6,0.8c0.4,0.4,0.6,1,0.6,1.7
					c-0.1,1.3-1.2,2.3-2.5,2.2L330,593.3z"/>
				<path class="st7" d="M339.1,585.1c-0.6,0-1.2-0.3-1.6-0.8l4.2-3.7l8.6,0.5c0.6,0,1.2,0.3,1.6,0.8s0.6,1,0.6,1.7
					c-0.1,1.3-1.2,2.3-2.5,2.2L339.1,585.1z"/>
			</g>
		</g>
	</g>
	<g id="goup-bridge_amercoeur">
		<g>
			<circle id="bridge-pointer_00000114031488047184506230000005900178521707062694_" class="st3" cx="561.1" cy="512.1" r="16"/>

				<rect id="bridge-shadow_00000175323545817146521680000012003060679628256172_" x="548.2" y="510.5" transform="matrix(0.8858 0.464 -0.464 0.8858 301.6934 -201.8875)" class="st4" width="25.9" height="3.3"/>

				<rect id="bridge_00000122700059554398512750000007777531060872183727_" x="548.2" y="510.5" transform="matrix(0.8858 0.464 -0.464 0.8858 301.6934 -201.8875)" class="st5" width="25.9" height="3.3"/>
		</g>
		<g id="bridge-direction-reverse-clockwise_00000155851488942398368860000008534131308632426883_">
			<g>
				<path class="st6" d="M588.5,467.8l2.1,9.1c0.2,0.7,0.6,1.2,1.1,1.6c0.6,0.3,1.2,0.5,1.9,0.3c1.4-0.3,2.2-1.7,1.9-3.1l-2.7-11.6
					c-0.2-0.7-0.6-1.2-1.1-1.6L588.5,467.8z"/>
				<path class="st6" d="M585.8,475.5c-0.2-0.7-0.6-1.2-1.1-1.6l-3.3,5.2l2.1,9.1c0.2,0.7,0.6,1.2,1.1,1.6s1.2,0.5,1.9,0.3
					c1.4-0.3,2.2-1.7,1.9-3.1L585.8,475.5z"/>
				<path class="st6" d="M578.7,486.9c-0.2-0.7-0.6-1.2-1.1-1.6l-3.2,5.2l2.1,9.1c0.2,0.7,0.6,1.2,1.1,1.6s1.2,0.5,1.9,0.3
					c1.4-0.3,2.2-1.7,1.9-3.1L578.7,486.9z"/>
			</g>
			<g>
				<path class="st7" d="M588.5,467.8l-9.1,2.1c-0.7,0.2-1.4,0-1.9-0.3s-1-0.9-1.1-1.6c-0.3-1.4,0.5-2.7,1.9-3.1l11.6-2.7
					c0.7-0.2,1.4,0,1.9,0.3L588.5,467.8z"/>
				<path class="st7" d="M582.7,473.6c0.7-0.2,1.4,0,1.9,0.3l-3.3,5.2l-9.1,2.1c-0.7,0.2-1.4,0-1.9-0.3s-1-0.9-1.1-1.6
					c-0.3-1.4,0.5-2.7,1.9-3.1L582.7,473.6z"/>
				<path class="st7" d="M575.6,485c0.7-0.2,1.4,0,1.9,0.3l-3.2,5.2l-9.1,2.1c-0.7,0.2-1.4,0-1.9-0.3s-1-0.9-1.1-1.6
					c-0.3-1.4,0.5-2.7,1.9-3.1L575.6,485z"/>
			</g>
		</g>
		<g id="bridge-direction-clockwise_00000087382920879907368860000010087055008040618660_">
			<g>
				<path class="st6" d="M520.4,543l1.5-8.4c0.1-0.6,0-1.3-0.4-1.7c-0.3-0.5-0.9-0.8-1.5-1c-1.3-0.2-2.5,0.6-2.7,1.9l-1.9,10.7
					c-0.1,0.6,0,1.3,0.4,1.7L520.4,543z"/>
				<path class="st6" d="M525.5,537.4c-0.1,0.6,0,1.3,0.4,1.7l4.6-3.2l1.5-8.4c0.1-0.6,0-1.3-0.4-1.7c-0.3-0.5-0.9-0.8-1.5-1
					c-1.3-0.2-2.5,0.6-2.7,1.9L525.5,537.4z"/>
				<path class="st6" d="M535.5,530.4c-0.1,0.6,0,1.3,0.4,1.7l4.6-3.2l1.5-8.5c0.1-0.6,0-1.3-0.4-1.7c-0.3-0.5-0.9-0.8-1.5-1
					c-1.3-0.2-2.5,0.6-2.7,1.9L535.5,530.4z"/>
			</g>
			<g>
				<path class="st7" d="M520.4,543l8.4,1.5c0.6,0.1,1.2,0.5,1.5,1c0.3,0.5,0.5,1.1,0.4,1.7c-0.2,1.3-1.4,2.1-2.7,1.9l-10.7-1.9
					c-0.6-0.1-1.2-0.5-1.5-1L520.4,543z"/>
				<path class="st7" d="M527.4,540.1c-0.6-0.1-1.2-0.5-1.5-1l4.6-3.2l8.4,1.5c0.6,0.1,1.2,0.5,1.5,1c0.3,0.5,0.5,1.1,0.4,1.7
					c-0.2,1.3-1.4,2.1-2.7,1.9L527.4,540.1z"/>
				<path class="st7" d="M537.4,533.1c-0.6-0.1-1.2-0.5-1.5-1l4.6-3.2l8.5,1.5c0.6,0.1,1.2,0.5,1.5,1c0.3,0.5,0.5,1.1,0.4,1.7
					c-0.2,1.3-1.4,2.1-2.7,1.9L537.4,533.1z"/>
			</g>
		</g>
	</g>
	<g id="goup-bridge_bressoux">
		<g>
			<circle id="bridge-pointer_00000161599527477842142410000014032664628541047692_" class="st3" cx="657.8" cy="346.4" r="16"/>

				<rect id="bridge-shadow_00000178194432654827058900000016176630746879596444_" x="644.8" y="344.8" transform="matrix(0.8628 0.5055 -0.5055 0.8628 265.3761 -285.0216)" class="st4" width="25.9" height="3.3"/>

				<rect id="bridge_00000177466814780929238950000014635574149792667057_" x="644.8" y="344.8" transform="matrix(0.8628 0.5055 -0.5055 0.8628 265.3761 -285.0216)" class="st5" width="25.9" height="3.3"/>
		</g>
		<g id="bridge-direction-reverse-clockwise_00000135668165448010699400000006824376838019038341_">
			<g>
				<path class="st6" d="M683.7,301.1l2.4,9.1c0.2,0.7,0.6,1.2,1.2,1.5c0.6,0.3,1.3,0.4,1.9,0.3c1.4-0.4,2.2-1.8,1.8-3.1l-3.1-11.5
					c-0.2-0.7-0.6-1.2-1.2-1.5L683.7,301.1z"/>
				<path class="st6" d="M681.2,309c-0.2-0.7-0.6-1.2-1.2-1.5l-3.1,5.3l2.4,9.1c0.2,0.7,0.6,1.2,1.2,1.5c0.6,0.3,1.3,0.4,1.9,0.3
					c1.4-0.4,2.2-1.8,1.8-3.1L681.2,309z"/>
				<path class="st6" d="M674.5,320.6c-0.2-0.7-0.6-1.2-1.2-1.5l-3.1,5.3l2.4,9.1c0.2,0.7,0.6,1.2,1.2,1.5c0.6,0.3,1.3,0.4,1.9,0.3
					c1.4-0.4,2.2-1.8,1.8-3.1L674.5,320.6z"/>
			</g>
			<g>
				<path class="st7" d="M683.7,301.1l-9.1,2.4c-0.7,0.2-1.4,0.1-1.9-0.3c-0.6-0.3-1-0.9-1.2-1.5c-0.4-1.4,0.4-2.8,1.8-3.1l11.5-3.1
					c0.7-0.2,1.4-0.1,1.9,0.3L683.7,301.1z"/>
				<path class="st7" d="M678.1,307.2c0.7-0.2,1.4-0.1,1.9,0.3l-3.1,5.3l-9.1,2.4c-0.7,0.2-1.4,0.1-1.9-0.3c-0.6-0.3-1-0.9-1.2-1.5
					c-0.4-1.4,0.4-2.8,1.8-3.1L678.1,307.2z"/>
				<path class="st7" d="M671.4,318.8c0.7-0.2,1.4-0.1,1.9,0.3l-3.1,5.3l-9.1,2.4c-0.7,0.2-1.4,0.1-1.9-0.3c-0.6-0.3-1-0.9-1.2-1.5
					c-0.4-1.4,0.4-2.8,1.8-3.1L671.4,318.8z"/>
			</g>
		</g>
		<g id="bridge-direction-clockwise_00000015356072917175089100000007537040801148018049_">
			<g>
				<path class="st6" d="M630.2,389.3l-1.5-8.4c-0.1-0.6-0.5-1.2-1-1.5c-0.5-0.3-1.1-0.5-1.7-0.4c-1.3,0.2-2.1,1.4-1.9,2.7l1.9,10.7
					c0.1,0.6,0.5,1.2,1,1.5L630.2,389.3z"/>
				<path class="st6" d="M633,382.4c0.1,0.6,0.5,1.2,1,1.5l3.2-4.6l-1.5-8.4c-0.1-0.6-0.5-1.2-1-1.5c-0.5-0.3-1.1-0.5-1.7-0.4
					c-1.3,0.2-2.1,1.4-1.9,2.7L633,382.4z"/>
				<path class="st6" d="M640,372.3c0.1,0.6,0.5,1.2,1,1.5l3.2-4.6l-1.5-8.5c-0.1-0.6-0.5-1.2-1-1.5c-0.5-0.3-1.1-0.5-1.7-0.4
					c-1.3,0.2-2.1,1.4-1.9,2.7L640,372.3z"/>
			</g>
			<g>
				<path class="st7" d="M630.2,389.3l8.4-1.5c0.6-0.1,1.3,0,1.7,0.4c0.5,0.3,0.8,0.9,1,1.5c0.2,1.3-0.6,2.5-1.9,2.7l-10.7,1.9
					c-0.6,0.1-1.3,0-1.7-0.4L630.2,389.3z"/>
				<path class="st7" d="M635.7,384.3c-0.6,0.1-1.3,0-1.7-0.4l3.2-4.6l8.4-1.5c0.6-0.1,1.3,0,1.7,0.4c0.5,0.3,0.8,0.9,1,1.5
					c0.2,1.3-0.6,2.5-1.9,2.7L635.7,384.3z"/>
				<path class="st7" d="M642.7,374.2c-0.6,0.1-1.3,0-1.7-0.4l3.2-4.6l8.5-1.5c0.6-0.1,1.3,0,1.7,0.4s0.8,0.9,1,1.5
					c0.2,1.3-0.6,2.5-1.9,2.7L642.7,374.2z"/>
			</g>
		</g>
	</g>
	<g id="goup-bridge_biais">
		<g>
			<circle id="bridge-pointer_00000011023676935943945740000003682865887808715409_" class="st3" cx="883.1" cy="141" r="21.9"/>

				<rect id="bridge-shadow_00000124877230656840147790000004660630603131411884_" x="856.5" y="137.6" transform="matrix(0.9915 0.1301 -0.1301 0.9915 25.8581 -113.703)" class="st4" width="53.3" height="6.8"/>

				<rect id="bridge_00000023964069270241689600000008623396586754506174_" x="856.5" y="137.6" transform="matrix(0.9915 0.1301 -0.1301 0.9915 25.8581 -113.703)" class="st5" width="53.3" height="6.8"/>
		</g>
		<g id="bridge-direction-reverse-clockwise_00000106834435005014464440000007103373801160404885_">
			<g>
				<path class="st6" d="M930.5,119.3l-3.3,8.8c-0.2,0.7-0.2,1.4,0.1,1.9s0.8,1.1,1.4,1.3c1.3,0.5,2.8-0.2,3.3-1.5l4.2-11.2
					c0.2-0.7,0.2-1.4-0.1-1.9L930.5,119.3z"/>
				<path class="st6" d="M923.9,124.2c0.2-0.7,0.2-1.4-0.1-1.9l-5.6,2.5l-3.3,8.8c-0.2,0.7-0.2,1.4,0.1,1.9s0.8,1.1,1.4,1.3
					c1.3,0.5,2.8-0.2,3.3-1.5L923.9,124.2z"/>
				<path class="st6" d="M911.7,129.8c0.2-0.7,0.2-1.4-0.1-1.9l-5.6,2.5l-3.3,8.8c-0.2,0.7-0.2,1.4,0.1,1.9c0.3,0.6,0.8,1.1,1.4,1.3
					c1.3,0.5,2.8-0.2,3.3-1.5L911.7,129.8z"/>
			</g>
			<g>
				<path class="st7" d="M930.5,119.3l-8.8-3.3c-0.7-0.2-1.2-0.7-1.4-1.3c-0.3-0.6-0.3-1.3-0.1-1.9c0.5-1.3,2-2,3.3-1.5l11.2,4.2
					c0.7,0.2,1.2,0.7,1.4,1.3L930.5,119.3z"/>
				<path class="st7" d="M922.5,120.9c0.7,0.2,1.2,0.7,1.4,1.3l-5.6,2.5l-8.8-3.3c-0.7-0.2-1.2-0.7-1.4-1.3
					c-0.3-0.6-0.3-1.3-0.1-1.9c0.5-1.3,2-2,3.3-1.5L922.5,120.9z"/>
				<path class="st7" d="M910.2,126.5c0.7,0.2,1.2,0.7,1.4,1.3l-5.6,2.5l-8.8-3.3c-0.7-0.3-1.2-0.7-1.4-1.3s-0.3-1.3-0.1-1.9
					c0.5-1.3,2-2,3.3-1.5L910.2,126.5z"/>
			</g>
		</g>
		<g id="bridge-direction-clockwise_00000031902141150407904700000002106196157249501357_">
			<g>
				<path class="st6" d="M838.3,165.5l2.7-8.1c0.2-0.6,0.1-1.2-0.1-1.8c-0.3-0.5-0.7-1-1.3-1.2c-1.2-0.4-2.5,0.3-3,1.5l-3.5,10.3
					c-0.2,0.6-0.1,1.2,0.1,1.8L838.3,165.5z"/>
				<path class="st6" d="M844.1,160.8c-0.2,0.6-0.1,1.2,0.1,1.8l5-2.5l2.7-8.1c0.2-0.6,0.1-1.2-0.1-1.8c-0.3-0.5-0.7-1-1.3-1.2
					c-1.2-0.4-2.5,0.3-3,1.5L844.1,160.8z"/>
				<path class="st6" d="M855.1,155.3c-0.2,0.6-0.1,1.2,0.1,1.8l5-2.5l2.7-8.1c0.2-0.6,0.1-1.2-0.1-1.8s-0.7-1-1.3-1.2
					c-1.2-0.4-2.5,0.3-3,1.5L855.1,155.3z"/>
			</g>
			<g>
				<path class="st7" d="M838.3,165.5l8.1,2.7c0.6,0.2,1.1,0.6,1.3,1.2s0.3,1.2,0.1,1.8c-0.4,1.2-1.7,1.9-3,1.5l-10.3-3.5
					c-0.6-0.2-1.1-0.6-1.3-1.2L838.3,165.5z"/>
				<path class="st7" d="M845.6,163.7c-0.6-0.2-1.1-0.6-1.3-1.2l5-2.5l8.1,2.7c0.6,0.2,1.1,0.6,1.3,1.2s0.3,1.2,0.1,1.8
					c-0.4,1.2-1.7,1.9-3,1.5L845.6,163.7z"/>
				<path class="st7" d="M856.6,158.2c-0.6-0.2-1.1-0.6-1.3-1.2l5-2.5l8.1,2.7c0.6,0.2,1.1,0.6,1.3,1.2c0.3,0.5,0.3,1.2,0.1,1.8
					c-0.4,1.2-1.7,1.9-3,1.5L856.6,158.2z"/>
			</g>
		</g>
	</g>
	<g id="goup-bridge_atlas">
		<g>
			<path id="bridge-pointer" class="st3" d="M951,99.7c-0.4-2.6-1.4-5.1-3-7.3c-0.6-3.4-2.2-6.6-4.8-9c0.1-3.1-0.8-6.2-2.4-8.8
				c-0.5-2.3-1.5-4.5-3-6.4c0.9-4.5-0.1-9-2.7-12.6c-0.3-2.9-1.3-5.6-3-8c2.5-6.6,0.3-13.9-5-18.2c-0.5-5.6-4-10.7-9.5-13.1
				c-8.1-3.6-17.5,0.1-21.1,8.2c-3,6.8-0.9,14.6,4.7,19c0.3,2.8,1.3,5.5,3,7.8c-2,5.2-1,10.8,2,15c0.3,3,1.4,6,3.3,8.4
				c-0.8,4.1,0,8.2,2,11.6c0.7,3.1,2.3,6,4.6,8.2c-0.1,3.6,1.1,7.1,3.2,10c0.7,4.3,3.2,8.2,7,10.7c0.8,5.3,4.1,10,9.4,12.3
				c8.1,3.6,17.5-0.1,21.1-8.2C960.1,112.3,957.4,104,951,99.7z"/>
			<polygon id="bridge-shadow" class="st4" points="946.5,125.4 930,95 916,38 906,25 909,23 919,36 934,94 949.5,123.9 			"/>
			<polygon id="bridge_00000072249200092752787760000008609889603833364120_" class="st5" points="946.5,125.4 930,95 916,38
				906,25 909,23 919,36 934,94 949.5,123.9 			"/>
		</g>
		<g id="bridge-direction-reverse-clockwise_00000022562972846925196930000006014629604167335087_">
			<g>
				<path class="st6" d="M988.7,89.3l-2.9,8.9c-0.2,0.7-0.1,1.4,0.1,1.9c0.3,0.6,0.8,1.1,1.5,1.3c1.3,0.4,2.8-0.3,3.2-1.6l3.7-11.3
					c0.2-0.7,0.1-1.4-0.1-1.9L988.7,89.3z"/>
				<path class="st6" d="M982.3,94.6c0.2-0.7,0.1-1.4-0.1-1.9l-5.5,2.8l-2.9,8.9c-0.2,0.7-0.1,1.4,0.1,1.9c0.3,0.6,0.8,1.1,1.5,1.3
					c1.3,0.4,2.8-0.3,3.2-1.6L982.3,94.6z"/>
				<path class="st6" d="M970.4,100.6c0.2-0.7,0.1-1.4-0.1-1.9l-5.5,2.8l-2.9,8.9c-0.2,0.7-0.1,1.4,0.1,1.9c0.3,0.6,0.8,1.1,1.5,1.3
					c1.3,0.4,2.8-0.3,3.2-1.6L970.4,100.6z"/>
			</g>
			<g>
				<path class="st7" d="M988.7,89.3l-8.9-2.9c-0.7-0.2-1.2-0.7-1.5-1.3c-0.3-0.6-0.4-1.3-0.1-1.9c0.4-1.3,1.9-2.1,3.2-1.6l11.3,3.7
					c0.7,0.2,1.2,0.7,1.5,1.3L988.7,89.3z"/>
				<path class="st7" d="M980.7,91.3c0.7,0.2,1.2,0.7,1.5,1.3l-5.5,2.8l-8.9-2.9c-0.7-0.2-1.2-0.7-1.5-1.3s-0.4-1.3-0.1-1.9
					c0.4-1.3,1.9-2.1,3.2-1.6L980.7,91.3z"/>
				<path class="st7" d="M968.7,97.4c0.7,0.2,1.2,0.7,1.5,1.3l-5.5,2.8l-8.9-2.9c-0.7-0.2-1.2-0.7-1.5-1.3c-0.3-0.6-0.4-1.3-0.1-1.9
					c0.4-1.3,1.9-2.1,3.2-1.6L968.7,97.4z"/>
			</g>
		</g>
		<g id="bridge-direction-clockwise_00000107563874208273871160000001199904422637350786_">
			<g>
				<path class="st6" d="M895.6,133.9l3.4-7.9c0.3-0.6,0.2-1.2,0-1.8c-0.2-0.6-0.7-1-1.2-1.3c-1.2-0.5-2.6,0-3.1,1.2l-4.3,10
					c-0.3,0.6-0.2,1.2,0,1.8L895.6,133.9z"/>
				<path class="st6" d="M901.8,129.6c-0.3,0.6-0.2,1.2,0,1.8l5.2-2.1l3.4-7.9c0.3-0.6,0.2-1.2,0-1.8c-0.2-0.6-0.7-1-1.2-1.3
					c-1.2-0.5-2.6,0-3.1,1.2L901.8,129.6z"/>
				<path class="st6" d="M913.2,125c-0.3,0.6-0.2,1.2,0,1.8l5.2-2.1l3.4-7.9c0.2-0.6,0.2-1.2,0-1.8c-0.2-0.6-0.7-1-1.2-1.3
					c-1.2-0.5-2.6,0-3.1,1.2L913.2,125z"/>
			</g>
			<g>
				<path class="st7" d="M895.6,133.9l7.9,3.4c0.6,0.3,1,0.7,1.2,1.3s0.2,1.2,0,1.8c-0.5,1.2-1.9,1.7-3.1,1.2l-10-4.3
					c-0.6-0.3-1-0.7-1.2-1.3L895.6,133.9z"/>
				<path class="st7" d="M903,132.7c-0.6-0.3-1-0.7-1.2-1.3l5.2-2.1l7.9,3.4c0.6,0.3,1,0.7,1.2,1.3c0.2,0.6,0.2,1.2,0,1.8
					c-0.5,1.2-1.9,1.7-3.1,1.2L903,132.7z"/>
				<path class="st7" d="M914.4,128.1c-0.6-0.3-1-0.7-1.2-1.3l5.2-2.1l7.9,3.4c0.6,0.3,1,0.7,1.2,1.3c0.2,0.6,0.2,1.2,0,1.8
					c-0.5,1.2-1.9,1.7-3.1,1.2L914.4,128.1z"/>
			</g>
		</g>
	</g>
	<g id="goup-bridge_maghin">
		<g>
			<circle id="bridge-pointer_00000018915332376249594390000011677279317822469806_" class="st3" cx="519.2" cy="181.8" r="24.2"/>

				<rect id="bridge-shadow_00000103256742594369510640000001939183114494794665_" x="499.6" y="179.3" transform="matrix(-0.288 -0.9576 0.9576 -0.288 494.624 731.3569)" class="st4" width="39.2" height="5"/>

				<rect id="bridge_00000054957431463387922480000000015682681268767915_" x="499.6" y="179.3" transform="matrix(-0.288 -0.9576 0.9576 -0.288 494.624 731.3569)" class="st5" width="39.2" height="5"/>
		</g>
		<g id="bridge-direction-reverse-clockwise_00000072267846754371352650000010553138465461814952_">
			<g>
				<path class="st6" d="M471,198.9l4.4-8.3c0.3-0.6,0.4-1.3,0.2-1.9c-0.2-0.6-0.6-1.2-1.2-1.5c-1.2-0.7-2.8-0.2-3.4,1.1l-5.6,10.5
					c-0.3,0.6-0.4,1.3-0.2,1.9L471,198.9z"/>
				<path class="st6" d="M478.1,194.8c-0.3,0.6-0.4,1.3-0.2,1.9l5.9-1.8l4.4-8.3c0.3-0.6,0.4-1.3,0.2-1.9c-0.2-0.6-0.6-1.2-1.2-1.5
					c-1.2-0.7-2.8-0.2-3.4,1.1L478.1,194.8z"/>
				<path class="st6" d="M490.9,190.9c-0.3,0.6-0.4,1.3-0.2,1.9l5.9-1.8l4.4-8.3c0.3-0.6,0.4-1.3,0.2-1.9c-0.2-0.6-0.6-1.2-1.2-1.5
					c-1.2-0.7-2.8-0.2-3.4,1.1L490.9,190.9z"/>
			</g>
			<g>
				<path class="st7" d="M471,198.9l8.3,4.4c0.6,0.3,1,0.9,1.2,1.5c0.2,0.6,0.1,1.3-0.2,1.9c-0.7,1.2-2.2,1.7-3.4,1.1l-10.5-5.6
					c-0.6-0.3-1-0.9-1.2-1.5L471,198.9z"/>
				<path class="st7" d="M479.1,198.2c-0.6-0.3-1-0.9-1.2-1.5l5.9-1.8l8.3,4.4c0.6,0.3,1,0.9,1.2,1.5c0.2,0.6,0.1,1.3-0.2,1.9
					c-0.7,1.2-2.2,1.7-3.4,1.1L479.1,198.2z"/>
				<path class="st7" d="M492,194.3c-0.6-0.3-1-0.9-1.2-1.5l5.9-1.8l8.3,4.4c0.6,0.3,1,0.9,1.2,1.5s0.1,1.3-0.2,1.9
					c-0.7,1.2-2.2,1.7-3.4,1.1L492,194.3z"/>
			</g>
		</g>
		<g id="bridge-direction-clockwise_00000102534323885661591760000017840172305193798330_">
			<g>
				<path class="st6" d="M569.5,167.8l-4.2,7.5c-0.3,0.6-0.4,1.2-0.2,1.8s0.5,1.1,1.1,1.4c1.1,0.6,2.5,0.2,3.2-0.9l5.4-9.5
					c0.3-0.6,0.4-1.2,0.2-1.8L569.5,167.8z"/>
				<path class="st6" d="M562.9,171.3c0.3-0.6,0.4-1.2,0.2-1.8l-5.4,1.5l-4.2,7.5c-0.3,0.6-0.4,1.2-0.2,1.8s0.5,1.1,1.1,1.4
					c1.1,0.6,2.5,0.2,3.2-0.9L562.9,171.3z"/>
				<path class="st6" d="M551,174.6c0.3-0.6,0.4-1.2,0.2-1.8l-5.4,1.5l-4.2,7.5c-0.3,0.6-0.4,1.2-0.2,1.8c0.2,0.6,0.5,1.1,1.1,1.4
					c1.1,0.6,2.5,0.2,3.2-0.9L551,174.6z"/>
			</g>
			<g>
				<path class="st7" d="M569.5,167.8l-7.5-4.2c-0.6-0.3-0.9-0.8-1.1-1.4c-0.2-0.6-0.1-1.2,0.2-1.8c0.6-1.1,2.1-1.5,3.2-0.9l9.5,5.4
					c0.6,0.3,0.9,0.8,1.1,1.4L569.5,167.8z"/>
				<path class="st7" d="M562,168.1c0.6,0.3,0.9,0.8,1.1,1.4l-5.4,1.5l-7.5-4.2c-0.6-0.3-0.9-0.8-1.1-1.4c-0.2-0.6-0.1-1.2,0.2-1.8
					c0.6-1.1,2.1-1.5,3.2-0.9L562,168.1z"/>
				<path class="st7" d="M550.1,171.4c0.6,0.3,0.9,0.8,1.1,1.4l-5.4,1.5l-7.5-4.2c-0.6-0.3-0.9-0.8-1.1-1.4s-0.1-1.2,0.2-1.8
					c0.6-1.1,2.1-1.5,3.2-0.9L550.1,171.4z"/>
			</g>
		</g>
	</g>
	<g id="goup-bridge_arches">
		<g>
			<circle id="bridge-pointer_00000046308845338601594870000011466584966491530645_" class="st3" cx="350.7" cy="293.6" r="24.2"/>

				<rect id="bridge-shadow_00000110471977768571609540000009184943983575210390_" x="327.4" y="290.7" transform="matrix(-0.8805 -0.4741 0.4741 -0.8805 520.3028 718.4355)" class="st4" width="46.5" height="5.9"/>

				<rect id="bridge_00000053515116680104245970000000413645580343203492_" x="327.4" y="290.7" transform="matrix(-0.8805 -0.4741 0.4741 -0.8805 520.3028 718.4355)" class="st5" width="46.5" height="5.9"/>
		</g>
		<g id="bridge-direction-reverse-clockwise_00000080203239357776900850000000232695168720348346_">
			<g>
				<path class="st6" d="M333.5,342l-3.7-8.6c-0.3-0.6-0.8-1.1-1.4-1.4s-1.3-0.3-2,0c-1.3,0.6-1.9,2-1.3,3.3l4.7,11
					c0.3,0.6,0.8,1.1,1.4,1.4L333.5,342z"/>
				<path class="st6" d="M334.8,333.9c0.3,0.6,0.8,1.1,1.4,1.4l2.3-5.7l-3.7-8.6c-0.3-0.6-0.8-1.1-1.4-1.4c-0.6-0.2-1.3-0.3-2,0
					c-1.3,0.6-1.9,2-1.3,3.3L334.8,333.9z"/>
				<path class="st6" d="M339.9,321.4c0.3,0.6,0.8,1.1,1.4,1.4l2.3-5.7l-3.7-8.6c-0.3-0.6-0.8-1.1-1.4-1.4s-1.3-0.3-2,0
					c-1.3,0.6-1.9,2-1.3,3.3L339.9,321.4z"/>
			</g>
			<g>
				<path class="st7" d="M333.5,342l8.6-3.7c0.6-0.3,1.3-0.3,2,0c0.6,0.2,1.1,0.7,1.4,1.4c0.6,1.3-0.1,2.8-1.3,3.3l-11,4.7
					c-0.6,0.3-1.3,0.3-2,0L333.5,342z"/>
				<path class="st7" d="M338.2,335.2c-0.6,0.3-1.3,0.3-2,0l2.3-5.7l8.6-3.7c0.6-0.3,1.3-0.3,2,0s1.1,0.7,1.4,1.4
					c0.6,1.3-0.1,2.8-1.3,3.3L338.2,335.2z"/>
				<path class="st7" d="M343.2,322.8c-0.6,0.3-1.3,0.3-2,0l2.3-5.7l8.6-3.7c0.6-0.3,1.3-0.3,2,0c0.6,0.2,1.1,0.7,1.4,1.4
					c0.6,1.3-0.1,2.8-1.3,3.3L343.2,322.8z"/>
			</g>
		</g>
		<g id="bridge-direction-clockwise_00000127003513320889317770000000743809114428672654_">
			<g>
				<path class="st6" d="M381.1,251.1l1.4,8.5c0.1,0.6,0.5,1.2,0.9,1.5c0.5,0.3,1.1,0.5,1.7,0.4c1.3-0.2,2.1-1.4,1.9-2.7l-1.8-10.8
					c-0.1-0.6-0.5-1.2-0.9-1.5L381.1,251.1z"/>
				<path class="st6" d="M378.2,258c-0.1-0.6-0.5-1.2-0.9-1.5l-3.3,4.6l1.4,8.5c0.1,0.6,0.5,1.2,0.9,1.5c0.5,0.3,1.1,0.5,1.7,0.4
					c1.3-0.2,2.1-1.4,1.9-2.7L378.2,258z"/>
				<path class="st6" d="M371,268c-0.1-0.6-0.5-1.2-0.9-1.5l-3.3,4.6l1.4,8.5c0.1,0.6,0.5,1.2,0.9,1.5s1.1,0.5,1.7,0.4
					c1.3-0.2,2.1-1.4,1.9-2.7L371,268z"/>
			</g>
			<g>
				<path class="st7" d="M381.1,251.1l-8.5,1.4c-0.6,0.1-1.3-0.1-1.7-0.4c-0.5-0.3-0.8-0.9-0.9-1.5c-0.2-1.3,0.6-2.5,1.9-2.7
					l10.8-1.8c0.6-0.1,1.3,0.1,1.7,0.4L381.1,251.1z"/>
				<path class="st7" d="M375.5,256.1c0.6-0.1,1.3,0.1,1.7,0.4l-3.3,4.6l-8.5,1.4c-0.6,0.1-1.3-0.1-1.7-0.4s-0.8-0.9-0.9-1.5
					c-0.2-1.3,0.6-2.5,1.9-2.7L375.5,256.1z"/>
				<path class="st7" d="M368.3,266c0.6-0.1,1.3,0.1,1.7,0.4l-3.3,4.6l-8.5,1.4c-0.6,0.1-1.3-0.1-1.7-0.4c-0.5-0.3-0.8-0.9-0.9-1.5
					c-0.2-1.3,0.6-2.5,1.9-2.7L368.3,266z"/>
			</g>
		</g>
	</g>
	<g id="goup-bridge_saucy">
		<g>
			<circle id="bridge-pointer_00000010285529443344565320000016798610301625090956_" class="st3" cx="329" cy="383.7" r="21"/>

				<rect id="bridge-shadow_00000075844311742175682780000001128431096370026418_" x="308.8" y="381.2" transform="matrix(-0.9556 -0.2947 0.2947 -0.9556 530.3182 847.3704)" class="st4" width="40.3" height="5.2"/>

				<rect id="bridge_00000018222558058183911420000017459948196550856321_" x="308.8" y="381.2" transform="matrix(-0.9556 -0.2947 0.2947 -0.9556 530.3182 847.3704)" class="st5" width="40.3" height="5.2"/>
		</g>
		<g id="bridge-direction-reverse-clockwise_00000073686190221584373230000013976946739181881016_">
			<g>
				<path class="st6" d="M320.7,434.5l-5.3-7.8c-0.4-0.6-1-0.9-1.6-1.1s-1.3,0-1.9,0.4c-1.2,0.8-1.5,2.4-0.7,3.5l6.7,9.9
					c0.4,0.6,1,0.9,1.6,1.1L320.7,434.5z"/>
				<path class="st6" d="M320.4,426.3c0.4,0.6,1,0.9,1.6,1.1l1.1-6l-5.3-7.8c-0.4-0.6-1-0.9-1.6-1.1s-1.3,0-1.9,0.4
					c-1.2,0.8-1.5,2.4-0.7,3.5L320.4,426.3z"/>
				<path class="st6" d="M322.9,413.1c0.4,0.6,1,0.9,1.6,1.1l1.1-6l-5.3-7.8c-0.4-0.6-1-0.9-1.6-1.1c-0.6-0.1-1.3,0-1.9,0.4
					c-1.2,0.8-1.5,2.4-0.7,3.5L322.9,413.1z"/>
			</g>
			<g>
				<path class="st7" d="M320.7,434.5l7.8-5.3c0.6-0.4,1.3-0.5,1.9-0.4c0.6,0.1,1.2,0.5,1.6,1.1c0.8,1.2,0.5,2.7-0.7,3.5l-9.9,6.7
					c-0.6,0.4-1.3,0.5-1.9,0.4L320.7,434.5z"/>
				<path class="st7" d="M323.9,426.9c-0.6,0.4-1.3,0.5-1.9,0.4l1.1-6l7.8-5.3c0.6-0.4,1.3-0.5,1.9-0.4c0.6,0.1,1.2,0.5,1.6,1.1
					c0.8,1.2,0.5,2.7-0.7,3.5L323.9,426.9z"/>
				<path class="st7" d="M326.4,413.8c-0.6,0.4-1.3,0.5-1.9,0.4l1.1-6l7.8-5.3c0.6-0.4,1.3-0.5,1.9-0.4s1.2,0.5,1.6,1.1
					c0.8,1.2,0.5,2.7-0.7,3.5L326.4,413.8z"/>
			</g>
		</g>
		<g id="bridge-direction-clockwise_00000153669170604024656420000010535154637837799574_">
			<g>
				<path class="st6" d="M339.7,332.9l4.6,7.3c0.3,0.5,0.9,0.9,1.5,1c0.6,0.1,1.2,0,1.8-0.3c1.1-0.7,1.4-2.1,0.7-3.2l-5.8-9.2
					c-0.3-0.5-0.9-0.9-1.5-1L339.7,332.9z"/>
				<path class="st6" d="M339.7,340.4c-0.3-0.5-0.9-0.9-1.5-1l-1.3,5.5l4.6,7.3c0.3,0.5,0.9,0.9,1.5,1c0.6,0.1,1.2,0,1.8-0.3
					c1.1-0.7,1.4-2.1,0.7-3.2L339.7,340.4z"/>
				<path class="st6" d="M337,352.4c-0.3-0.5-0.9-0.9-1.5-1l-1.3,5.5l4.6,7.3c0.3,0.5,0.9,0.9,1.5,1c0.6,0.1,1.2,0,1.8-0.3
					c1.1-0.7,1.4-2.1,0.7-3.2L337,352.4z"/>
			</g>
			<g>
				<path class="st7" d="M339.7,332.9l-7.3,4.6c-0.5,0.3-1.2,0.4-1.8,0.3c-0.6-0.1-1.1-0.5-1.5-1c-0.7-1.1-0.4-2.5,0.7-3.2l9.2-5.8
					c0.5-0.3,1.2-0.4,1.8-0.3L339.7,332.9z"/>
				<path class="st7" d="M336.5,339.7c0.5-0.3,1.2-0.4,1.8-0.3l-1.3,5.5l-7.3,4.6c-0.5,0.3-1.2,0.4-1.8,0.3c-0.6-0.1-1.1-0.5-1.5-1
					c-0.7-1.1-0.4-2.5,0.7-3.2L336.5,339.7z"/>
				<path class="st7" d="M333.7,351.6c0.5-0.3,1.2-0.4,1.8-0.3l-1.3,5.5l-7.3,4.6c-0.5,0.3-1.2,0.4-1.8,0.3c-0.6-0.1-1.1-0.5-1.5-1
					c-0.7-1.1-0.4-2.5,0.7-3.2L333.7,351.6z"/>
			</g>
		</g>
	</g>
	<g id="goup-bridge_kenedy">
		<g>
			<circle id="bridge-pointer_00000132058155430586046740000016227228083848175773_" class="st3" cx="303" cy="510" r="22"/>

				<rect id="bridge-shadow_00000052082949201336436610000017990158585133686716_" x="281.9" y="507.3" transform="matrix(-0.9556 -0.2947 0.2947 -0.9556 442.2649 1086.6405)" class="st4" width="42.3" height="5.4"/>

				<rect id="bridge_00000122678557125965609120000000764714294003074968_" x="281.9" y="507.3" transform="matrix(-0.9556 -0.2947 0.2947 -0.9556 442.2649 1086.6405)" class="st5" width="42.3" height="5.4"/>
		</g>
		<g id="bridge-direction-reverse-clockwise_00000016047908447197522060000010570479119362982586_">
			<g>
				<path class="st6" d="M278.9,555.3l-2.3-9.1c-0.2-0.7-0.6-1.2-1.2-1.6c-0.6-0.3-1.2-0.4-1.9-0.3c-1.4,0.4-2.2,1.7-1.8,3.1l3,11.5
					c0.2,0.7,0.6,1.2,1.2,1.6L278.9,555.3z"/>
				<path class="st6" d="M281.4,547.4c0.2,0.7,0.6,1.2,1.2,1.6l3.1-5.3l-2.3-9.1c-0.2-0.7-0.6-1.2-1.2-1.6c-0.6-0.3-1.2-0.4-1.9-0.3
					c-1.4,0.4-2.2,1.7-1.8,3.1L281.4,547.4z"/>
				<path class="st6" d="M288.3,535.9c0.2,0.7,0.6,1.2,1.2,1.6l3.1-5.3l-2.3-9.1c-0.2-0.7-0.6-1.2-1.2-1.6c-0.6-0.3-1.2-0.4-1.9-0.3
					c-1.4,0.4-2.2,1.7-1.8,3.1L288.3,535.9z"/>
			</g>
			<g>
				<path class="st7" d="M278.9,555.3l9.1-2.3c0.7-0.2,1.4-0.1,1.9,0.3c0.6,0.3,1,0.9,1.2,1.6c0.4,1.4-0.5,2.8-1.8,3.1l-11.5,3
					c-0.7,0.2-1.4,0.1-1.9-0.3L278.9,555.3z"/>
				<path class="st7" d="M284.5,549.3c-0.7,0.2-1.4,0.1-1.9-0.3l3.1-5.3l9.1-2.3c0.7-0.2,1.4-0.1,1.9,0.3c0.6,0.3,1,0.9,1.2,1.6
					c0.4,1.4-0.5,2.8-1.8,3.1L284.5,549.3z"/>
				<path class="st7" d="M291.4,537.7c-0.7,0.2-1.4,0.1-1.9-0.3l3.1-5.3l9.1-2.3c0.7-0.2,1.4-0.1,1.9,0.3c0.6,0.3,1,0.9,1.2,1.6
					c0.4,1.4-0.5,2.8-1.8,3.1L291.4,537.7z"/>
			</g>
		</g>
		<g id="bridge-direction-clockwise_00000109748472512009695730000007190188362637996705_">
			<g>
				<path class="st6" d="M320.4,460.8l3.7,7.7c0.3,0.6,0.8,1,1.3,1.2c0.6,0.2,1.2,0.2,1.8-0.1c1.2-0.6,1.7-2,1.1-3.1l-4.7-9.8
					c-0.3-0.6-0.8-1-1.3-1.2L320.4,460.8z"/>
				<path class="st6" d="M319.5,468.3c-0.3-0.6-0.8-1-1.3-1.2l-1.9,5.3l3.7,7.7c0.3,0.6,0.8,1,1.3,1.2s1.2,0.2,1.8-0.1
					c1.2-0.6,1.7-2,1.1-3.1L319.5,468.3z"/>
				<path class="st6" d="M315.5,479.9c-0.3-0.6-0.8-1-1.3-1.2l-1.9,5.3l3.7,7.7c0.3,0.6,0.8,1,1.3,1.2c0.6,0.2,1.2,0.2,1.8-0.1
					c1.2-0.6,1.7-2,1.1-3.1L315.5,479.9z"/>
			</g>
			<g>
				<path class="st7" d="M320.4,460.8l-7.7,3.7c-0.6,0.3-1.2,0.3-1.8,0.1c-0.6-0.2-1.1-0.6-1.3-1.2c-0.6-1.2-0.1-2.6,1.1-3.1
					l9.8-4.7c0.6-0.3,1.2-0.3,1.8-0.1L320.4,460.8z"/>
				<path class="st7" d="M316.4,467.2c0.6-0.3,1.2-0.3,1.8-0.1l-1.9,5.3l-7.7,3.7c-0.6,0.3-1.2,0.3-1.8,0.1s-1.1-0.6-1.3-1.2
					c-0.6-1.2-0.1-2.6,1.1-3.1L316.4,467.2z"/>
				<path class="st7" d="M312.3,478.8c0.6-0.3,1.2-0.3,1.8-0.1l-1.9,5.3l-7.7,3.7c-0.6,0.3-1.2,0.3-1.8,0.1
					c-0.6-0.2-1.1-0.6-1.3-1.2c-0.6-1.2-0.1-2.6,1.1-3.1L312.3,478.8z"/>
			</g>
		</g>
	</g>
	<g id="goup-bridge_Albert1">
		<g>
			<circle id="bridge-pointer_00000095303448727990866120000017071897359205496252_" class="st3" cx="203" cy="725.8" r="22"/>

				<rect id="bridge-shadow_00000020363725421138870910000004902300398226941833_" x="180.8" y="723" transform="matrix(-0.9986 -5.291636e-02 5.291636e-02 -0.9986 369.2029 1461.6145)" class="st4" width="46.3" height="5.9"/>

				<rect id="bridge_00000073690582797265007390000012674618350786674613_" x="180.8" y="723" transform="matrix(-0.9986 -5.291636e-02 5.291636e-02 -0.9986 369.2029 1461.6145)" class="st5" width="46.3" height="5.9"/>
		</g>
		<g id="bridge-direction-reverse-clockwise_00000112604045057411156610000002673189064032554424_">
			<g>
				<path class="st6" d="M201.6,777.3l-6.1-7.1c-0.5-0.5-1.1-0.8-1.7-0.9s-1.3,0.2-1.9,0.6c-1.1,0.9-1.2,2.5-0.3,3.6l7.8,9
					c0.5,0.5,1.1,0.8,1.7,0.9L201.6,777.3z"/>
				<path class="st6" d="M200.4,769.2c0.5,0.5,1.1,0.8,1.7,0.9l0.4-6.1l-6.1-7.1c-0.5-0.5-1.1-0.8-1.7-0.9s-1.3,0.2-1.9,0.6
					c-1.1,0.9-1.2,2.5-0.3,3.6L200.4,769.2z"/>
				<path class="st6" d="M201.3,755.8c0.5,0.5,1.1,0.8,1.7,0.9l0.4-6.1l-6.1-7.1c-0.5-0.5-1.1-0.8-1.7-0.9c-0.7,0-1.3,0.2-1.9,0.6
					c-1.1,0.9-1.2,2.5-0.3,3.6L201.3,755.8z"/>
			</g>
			<g>
				<path class="st7" d="M201.6,777.3l7.1-6.1c0.5-0.5,1.2-0.7,1.9-0.6s1.3,0.3,1.7,0.9c0.9,1.1,0.8,2.7-0.3,3.6l-9,7.8
					c-0.5,0.5-1.2,0.7-1.9,0.6L201.6,777.3z"/>
				<path class="st7" d="M204,769.4c-0.5,0.5-1.2,0.7-1.9,0.6l0.4-6.1l7.1-6.1c0.5-0.5,1.2-0.7,1.9-0.6c0.7,0,1.3,0.3,1.7,0.9
					c0.9,1.1,0.8,2.7-0.3,3.6L204,769.4z"/>
				<path class="st7" d="M204.9,756c-0.5,0.5-1.2,0.7-1.9,0.6l0.4-6.1l7.1-6.1c0.5-0.5,1.2-0.7,1.9-0.6c0.7,0,1.3,0.3,1.7,0.9
					c0.9,1.1,0.8,2.7-0.3,3.6L204.9,756z"/>
			</g>
		</g>
		<g id="bridge-direction-clockwise_00000072261510081785318560000010020123530234164363_">
			<g>
				<path class="st6" d="M219,675.9l3.9,7.6c0.3,0.6,0.8,1,1.4,1.2c0.6,0.2,1.2,0.1,1.8-0.1c1.1-0.6,1.6-2,1-3.1l-5-9.7
					c-0.3-0.6-0.8-1-1.4-1.2L219,675.9z"/>
				<path class="st6" d="M218.3,683.4c-0.3-0.6-0.8-1-1.4-1.2l-1.7,5.4l3.9,7.6c0.3,0.6,0.8,1,1.4,1.2c0.6,0.2,1.2,0.1,1.8-0.1
					c1.1-0.6,1.6-2,1-3.1L218.3,683.4z"/>
				<path class="st6" d="M214.6,695.1c-0.3-0.6-0.8-1-1.4-1.2l-1.7,5.4l3.9,7.6c0.3,0.6,0.8,1,1.4,1.2c0.6,0.2,1.2,0.1,1.8-0.1
					c1.1-0.6,1.6-2,1-3.1L214.6,695.1z"/>
			</g>
			<g>
				<path class="st7" d="M219,675.9l-7.6,3.9c-0.6,0.3-1.2,0.3-1.8,0.1c-0.6-0.2-1.1-0.6-1.4-1.2c-0.6-1.1-0.1-2.6,1-3.1l9.7-5
					c0.6-0.3,1.2-0.3,1.8-0.1L219,675.9z"/>
				<path class="st7" d="M215.2,682.4c0.6-0.3,1.2-0.3,1.8-0.1l-1.7,5.4l-7.6,3.9c-0.6,0.3-1.2,0.3-1.8,0.1
					c-0.6-0.2-1.1-0.6-1.4-1.2c-0.6-1.1-0.1-2.6,1-3.1L215.2,682.4z"/>
				<path class="st7" d="M211.4,694.1c0.6-0.3,1.2-0.3,1.8-0.1l-1.7,5.4l-7.6,3.9c-0.6,0.3-1.2,0.3-1.8,0.1
					c-0.6-0.2-1.1-0.6-1.4-1.2c-0.6-1.1-0.1-2.6,1-3.1L211.4,694.1z"/>
			</g>
		</g>
	</g>
	<g id="goup-bridge_liegeoise">
		<g>
			<circle id="bridge-pointer_00000150074782890465261190000001865908453961880993_" class="st3" cx="224" cy="906" r="22"/>

				<rect id="bridge-shadow_00000104664150336860016690000008502968697433715379_" x="204.8" y="900.6" transform="matrix(-0.8482 0.5297 -0.5297 -0.8482 906.7767 1547.1376)" class="st4" width="53.8" height="5.9"/>

				<rect id="bridge_00000181765421867814527140000007664192984764174474_" x="204.8" y="900.6" transform="matrix(-0.8482 0.5297 -0.5297 -0.8482 906.7767 1547.1376)" class="st5" width="53.8" height="5.9"/>
		</g>
		<g id="bridge-direction-reverse-clockwise_00000168802258362188443710000007049670309991058311_">
			<g>
				<path class="st6" d="M256.5,948.7l-8.7-3.5c-0.7-0.3-1.4-0.2-2,0c-0.6,0.3-1.1,0.7-1.4,1.4c-0.5,1.3,0.1,2.8,1.4,3.3l11.1,4.5
					c0.7,0.3,1.4,0.2,2,0L256.5,948.7z"/>
				<path class="st6" d="M251.7,942.1c0.7,0.3,1.4,0.2,2,0l-2.4-5.7l-8.7-3.5c-0.7-0.3-1.4-0.2-2,0c-0.6,0.3-1.1,0.7-1.4,1.4
					c-0.5,1.3,0.1,2.8,1.4,3.3L251.7,942.1z"/>
				<path class="st6" d="M246.4,929.7c0.7,0.3,1.4,0.2,2,0l-2.4-5.7l-8.7-3.5c-0.7-0.3-1.4-0.2-2,0c-0.6,0.3-1.1,0.7-1.4,1.4
					c-0.5,1.3,0.1,2.8,1.4,3.3L246.4,929.7z"/>
			</g>
			<g>
				<path class="st7" d="M256.5,948.7l3.5-8.7c0.3-0.7,0.8-1.1,1.4-1.4c0.6-0.3,1.3-0.3,2,0c1.3,0.5,1.9,2,1.4,3.3l-4.5,11.1
					c-0.3,0.7-0.8,1.1-1.4,1.4L256.5,948.7z"/>
				<path class="st7" d="M255,940.7c-0.3,0.7-0.8,1.1-1.4,1.4l-2.4-5.7l3.5-8.7c0.3-0.7,0.8-1.1,1.4-1.4c0.6-0.3,1.3-0.3,2,0
					c1.3,0.5,1.9,2,1.4,3.3L255,940.7z"/>
				<path class="st7" d="M249.7,928.3c-0.3,0.7-0.8,1.1-1.4,1.4l-2.4-5.7l3.5-8.7c0.3-0.7,0.8-1.1,1.4-1.4c0.6-0.3,1.3-0.3,2,0
					c1.3,0.5,1.9,2,1.4,3.3L249.7,928.3z"/>
			</g>
		</g>
		<g id="bridge-direction-clockwise_00000054229197134470204780000010222193808861308812_">
			<g>
				<path class="st6" d="M216.1,852.6l7.8,3.6c0.6,0.3,1.2,0.3,1.8,0.1c0.6-0.2,1-0.6,1.3-1.2c0.5-1.2,0-2.6-1.1-3.1l-9.9-4.6
					c-0.6-0.3-1.2-0.3-1.8-0.1L216.1,852.6z"/>
				<path class="st6" d="M220.1,859c-0.6-0.3-1.2-0.3-1.8-0.1l1.9,5.3l7.8,3.6c0.6,0.3,1.2,0.3,1.8,0.1s1-0.6,1.3-1.2
					c0.5-1.2,0-2.6-1.1-3.1L220.1,859z"/>
				<path class="st6" d="M224.3,870.5c-0.6-0.3-1.2-0.3-1.8-0.1l1.9,5.3l7.8,3.6c0.6,0.3,1.2,0.3,1.8,0.1c0.6-0.2,1-0.6,1.3-1.2
					c0.5-1.2,0-2.6-1.1-3.1L224.3,870.5z"/>
			</g>
			<g>
				<path class="st7" d="M216.1,852.6l-3.6,7.8c-0.3,0.6-0.8,1-1.3,1.2s-1.2,0.2-1.8-0.1c-1.2-0.5-1.7-1.9-1.1-3.1l4.6-9.9
					c0.3-0.6,0.8-1,1.3-1.2L216.1,852.6z"/>
				<path class="st7" d="M217,860.1c0.3-0.6,0.8-1,1.3-1.2l1.9,5.3l-3.6,7.8c-0.3,0.6-0.8,1-1.3,1.2s-1.2,0.2-1.8-0.1
					c-1.2-0.5-1.7-1.9-1.1-3.1L217,860.1z"/>
				<path class="st7" d="M221.2,871.6c0.3-0.6,0.8-1,1.3-1.2l1.9,5.3l-3.6,7.8c-0.3,0.6-0.8,1-1.3,1.2c-0.6,0.2-1.2,0.2-1.8-0.1
					c-1.2-0.5-1.7-1.9-1.1-3.1L221.2,871.6z"/>
			</g>
		</g>
	</g>
</g>
<g id="buildings">
	<g id="RSNM" class="st8">
		<g id="building-group" class="st9">
			<circle id="buidlding-pointer" class="st3" cx="257" cy="891" r="15"/>
			<circle id="buidlding-shadow" class="st4" cx="257" cy="891" r="7"/>
			<circle id="buidlding" class="st10" cx="257" cy="891" r="4"/>
		</g>
		<g id="bridge-direction-reverse-clockwise_00000140728084239890304090000005960732480498042298_" class="st9">
			<g>
				<path class="st6" d="M277.8,939.3l-8.7-3.5c-0.7-0.3-1.4-0.2-2,0c-0.6,0.3-1.1,0.7-1.4,1.4c-0.5,1.3,0.1,2.8,1.4,3.3l11.1,4.5
					c0.7,0.3,1.4,0.2,2,0L277.8,939.3z"/>
				<path class="st6" d="M273,932.7c0.7,0.3,1.4,0.2,2,0l-2.4-5.7l-8.7-3.5c-0.7-0.3-1.4-0.2-2,0c-0.6,0.3-1.1,0.7-1.4,1.4
					c-0.5,1.3,0.1,2.8,1.4,3.3L273,932.7z"/>
				<path class="st6" d="M267.8,920.3c0.7,0.3,1.4,0.2,2,0l-2.4-5.7l-8.7-3.5c-0.7-0.3-1.4-0.2-2,0c-0.6,0.3-1.1,0.7-1.4,1.4
					c-0.5,1.3,0.1,2.8,1.4,3.3L267.8,920.3z"/>
			</g>
			<g>
				<path class="st7" d="M277.8,939.3l3.5-8.7c0.3-0.7,0.8-1.1,1.4-1.4c0.6-0.3,1.3-0.3,2,0c1.3,0.5,1.9,2,1.4,3.3l-4.5,11.1
					c-0.3,0.7-0.8,1.1-1.4,1.4L277.8,939.3z"/>
				<path class="st7" d="M276.4,931.3c-0.3,0.7-0.8,1.1-1.4,1.4l-2.4-5.7l3.5-8.7c0.3-0.7,0.8-1.1,1.4-1.4c0.6-0.3,1.3-0.3,2,0
					c1.3,0.5,1.9,2,1.4,3.3L276.4,931.3z"/>
				<path class="st7" d="M271.1,918.9c-0.3,0.7-0.8,1.1-1.4,1.4l-2.4-5.7l3.5-8.7c0.3-0.7,0.8-1.1,1.4-1.4c0.6-0.3,1.3-0.3,2,0
					c1.3,0.5,1.9,2,1.4,3.3L271.1,918.9z"/>
			</g>
		</g>
		<g id="bridge-direction-clockwise_00000051382487133988375110000010435357294497499018_" class="st9">
			<g>
				<path class="st6" d="M237.5,843.2l7.8,3.6c0.6,0.3,1.2,0.3,1.8,0.1c0.6-0.2,1-0.6,1.3-1.2c0.5-1.2,0-2.6-1.1-3.1l-9.9-4.6
					c-0.6-0.3-1.2-0.3-1.8-0.1L237.5,843.2z"/>
				<path class="st6" d="M241.5,849.5c-0.6-0.3-1.2-0.3-1.8-0.1l1.9,5.3l7.8,3.6c0.6,0.3,1.2,0.3,1.8,0.1c0.6-0.2,1-0.6,1.3-1.2
					c0.5-1.2,0-2.6-1.1-3.1L241.5,849.5z"/>
				<path class="st6" d="M245.7,861.1c-0.6-0.3-1.2-0.3-1.8-0.1l1.9,5.3l7.8,3.6c0.6,0.3,1.2,0.3,1.8,0.1c0.6-0.2,1-0.6,1.3-1.2
					c0.5-1.2,0-2.6-1.1-3.1L245.7,861.1z"/>
			</g>
			<g>
				<path class="st7" d="M237.5,843.2l-3.6,7.8c-0.3,0.6-0.8,1-1.3,1.2c-0.6,0.2-1.2,0.2-1.8-0.1c-1.2-0.5-1.7-1.9-1.1-3.1l4.6-9.9
					c0.3-0.6,0.8-1,1.3-1.2L237.5,843.2z"/>
				<path class="st7" d="M238.4,850.7c0.3-0.6,0.8-1,1.3-1.2l1.9,5.3l-3.6,7.8c-0.3,0.6-0.8,1-1.3,1.2s-1.2,0.2-1.8-0.1
					c-1.2-0.5-1.7-1.9-1.1-3.1L238.4,850.7z"/>
				<path class="st7" d="M242.6,862.2c0.3-0.6,0.8-1,1.3-1.2l1.9,5.3l-3.6,7.8c-0.3,0.6-0.8,1-1.3,1.2c-0.6,0.2-1.2,0.2-1.8-0.1
					c-1.2-0.5-1.7-1.9-1.1-3.1L242.6,862.2z"/>
			</g>
		</g>
	</g>
	<g id="CONFLUENT">
		<g id="building-group_00000132778143911307448750000000670190235015107005_">
			<circle id="buidlding-pointer_00000098201393359659249710000001697625793154465194_" class="st11" cx="357" cy="1094" r="15"/>
			<circle id="buidlding-shadow_00000168075991846785564370000005587673947414286776_" class="st12" cx="357" cy="1094" r="7"/>
			<circle id="buidlding_00000092425762285700768420000014936220487676061619_" class="st10" cx="357" cy="1094" r="4"/>
		</g>
		<g id="bridge-direction-reverse-clockwise_00000054951762780290098500000014163008669098889392_">
			<g>
				<path class="st6" d="M360.8,1042l7.4,5.8c0.6,0.4,1.2,0.6,1.9,0.5c0.6-0.1,1.3-0.4,1.7-1c0.9-1.1,0.7-2.7-0.4-3.6l-9.4-7.4
					c-0.6-0.4-1.2-0.6-1.9-0.5L360.8,1042z"/>
				<path class="st6" d="M363.6,1049.7c-0.6-0.4-1.2-0.6-1.9-0.5l0.7,6.1l7.4,5.8c0.6,0.4,1.2,0.6,1.9,0.5c0.6-0.1,1.3-0.4,1.7-1
					c0.9-1.1,0.7-2.7-0.4-3.6L363.6,1049.7z"/>
				<path class="st6" d="M365.2,1063.1c-0.6-0.4-1.2-0.6-1.9-0.5l0.7,6.1l7.4,5.8c0.6,0.4,1.2,0.6,1.9,0.5c0.6-0.1,1.3-0.4,1.7-1
					c0.9-1.1,0.7-2.7-0.4-3.6L365.2,1063.1z"/>
			</g>
			<g>
				<path class="st7" d="M360.8,1042l-5.8,7.4c-0.4,0.6-1.1,0.9-1.7,1s-1.3-0.1-1.9-0.5c-1.1-0.9-1.3-2.5-0.4-3.6l7.4-9.4
					c0.4-0.6,1.1-0.9,1.7-1L360.8,1042z"/>
				<path class="st7" d="M360,1050.2c0.4-0.6,1.1-0.9,1.7-1l0.7,6.1l-5.8,7.4c-0.4,0.6-1.1,0.9-1.7,1c-0.6,0.1-1.3-0.1-1.9-0.5
					c-1.1-0.9-1.3-2.5-0.4-3.6L360,1050.2z"/>
				<path class="st7" d="M361.6,1063.5c0.4-0.6,1.1-0.9,1.7-1l0.7,6.1l-5.8,7.4c-0.4,0.6-1.1,0.9-1.7,1c-0.6,0.1-1.3-0.1-1.9-0.5
					c-1.1-0.9-1.3-2.5-0.4-3.6L361.6,1063.5z"/>
			</g>
		</g>
		<g id="bridge-direction-clockwise_00000099620239003681763430000013500232485802914192_">
			<g>
				<path class="st6" d="M323.5,1055.7l8.3,2.1c0.6,0.2,1.3,0.1,1.8-0.3s0.9-0.8,1.1-1.4c0.3-1.2-0.4-2.5-1.7-2.8l-10.6-2.7
					c-0.6-0.2-1.3-0.1-1.8,0.3L323.5,1055.7z"/>
				<path class="st6" d="M328.7,1061.2c-0.6-0.2-1.3-0.1-1.8,0.3l2.9,4.8l8.3,2.1c0.6,0.2,1.3,0.1,1.8-0.3s0.9-0.8,1.1-1.4
					c0.3-1.2-0.4-2.5-1.7-2.8L328.7,1061.2z"/>
				<path class="st6" d="M334.9,1071.8c-0.6-0.2-1.3-0.1-1.8,0.3l2.9,4.8l8.3,2.1c0.6,0.2,1.3,0.1,1.8-0.3c0.5-0.3,0.9-0.8,1.1-1.4
					c0.3-1.2-0.4-2.5-1.7-2.8L334.9,1071.8z"/>
			</g>
			<g>
				<path class="st7" d="M323.5,1055.7l-2.1,8.3c-0.2,0.6-0.6,1.1-1.1,1.4s-1.1,0.4-1.8,0.3c-1.2-0.3-2-1.6-1.7-2.8l2.7-10.6
					c0.2-0.6,0.6-1.1,1.1-1.4L323.5,1055.7z"/>
				<path class="st7" d="M325.8,1062.9c0.2-0.6,0.6-1.1,1.1-1.4l2.9,4.8l-2.1,8.3c-0.2,0.6-0.6,1.1-1.1,1.4s-1.1,0.4-1.8,0.3
					c-1.2-0.3-2-1.6-1.7-2.8L325.8,1062.9z"/>
				<path class="st7" d="M332.1,1073.5c0.2-0.6,0.6-1.1,1.1-1.4l2.9,4.8l-2.1,8.3c-0.2,0.6-0.6,1.1-1.1,1.4
					c-0.5,0.3-1.1,0.4-1.8,0.3c-1.2-0.3-2-1.6-1.7-2.8L332.1,1073.5z"/>
			</g>
		</g>
	</g>
	<g id="Q8-BELLE-ILE">
		<g id="building-group_00000068651474117051519310000013862505620847405493_">

            <circle id="buidlding-pointer_00000159441067231018004620000006833107466432178858_" class="st11" cx="742.8" cy="1385.2" r="15"/>
			<circle id="buidlding-shadow_00000021831658878364604310000013351858172830169985_" class="st12" cx="742.8" cy="1385.2" r="7"/>
			<circle id="buidlding_00000175313776274092749750000008674440488688964791_" class="st10" cx="742.8" cy="1385.2" r="4"/>
		</g>
		<g id="bridge-direction-reverse-clockwise_00000009571718986656083850000012466358265851915922_">
			<g>
				<path class="st6" d="M714.7,1341.3l9.4,0.2c0.7,0,1.3-0.3,1.8-0.7c0.5-0.5,0.8-1.1,0.8-1.8c0-1.4-1.1-2.6-2.5-2.6l-11.9-0.3
					c-0.7,0-1.3,0.3-1.8,0.7L714.7,1341.3z"/>
				<path class="st6" d="M721.5,1345.8c-0.7,0-1.3,0.3-1.8,0.7l4.3,4.4l9.4,0.2c0.7,0,1.3-0.3,1.8-0.7s0.8-1.1,0.8-1.8
					c0-1.4-1.1-2.6-2.5-2.6L721.5,1345.8z"/>
				<path class="st6" d="M730.8,1355.5c-0.7,0-1.3,0.3-1.8,0.7l4.2,4.4l9.4,0.2c0.7,0,1.3-0.3,1.8-0.7c0.5-0.5,0.8-1.1,0.8-1.8
					c0-1.4-1.1-2.6-2.5-2.6L730.8,1355.5z"/>
			</g>
			<g>
				<path class="st7" d="M714.7,1341.3l-0.2,9.4c0,0.7-0.3,1.3-0.8,1.8s-1.1,0.7-1.8,0.7c-1.4,0-2.5-1.2-2.5-2.6l0.3-11.9
					c0-0.7,0.3-1.3,0.8-1.8L714.7,1341.3z"/>
				<path class="st7" d="M718.9,1348.3c0-0.7,0.3-1.3,0.8-1.8l4.3,4.4l-0.2,9.4c0,0.7-0.3,1.3-0.8,1.8c-0.5,0.5-1.1,0.7-1.8,0.7
					c-1.4,0-2.5-1.2-2.5-2.6L718.9,1348.3z"/>
				<path class="st7" d="M728.2,1358c0-0.7,0.3-1.3,0.8-1.8l4.2,4.4l-0.2,9.4c0,0.7-0.3,1.3-0.8,1.8s-1.1,0.7-1.8,0.7
					c-1.4,0-2.5-1.2-2.5-2.6L728.2,1358z"/>
			</g>
		</g>
		<g id="bridge-direction-clockwise_00000178890207042269689600000013222677393104731296_">
			<g>
				<path class="st6" d="M693,1374.6l7.9-3.3c0.6-0.2,1-0.7,1.3-1.3c0.2-0.6,0.2-1.2,0-1.8c-0.5-1.2-1.9-1.8-3-1.3l-10.1,4.1
					c-0.6,0.2-1,0.7-1.3,1.3L693,1374.6z"/>
				<path class="st6" d="M700.4,1375.9c-0.6,0.2-1,0.7-1.3,1.3l5.2,2.2l7.9-3.3c0.6-0.2,1-0.7,1.3-1.3c0.2-0.6,0.2-1.2,0-1.8
					c-0.5-1.2-1.9-1.8-3-1.3L700.4,1375.9z"/>
				<path class="st6" d="M711.8,1380.7c-0.6,0.2-1,0.7-1.3,1.3l5.2,2.2l7.9-3.3c0.6-0.2,1-0.7,1.3-1.3c0.2-0.6,0.2-1.2,0-1.8
					c-0.5-1.2-1.9-1.8-3-1.3L711.8,1380.7z"/>
			</g>
			<g>
				<path class="st7" d="M693,1374.6l3.3,7.9c0.2,0.6,0.2,1.2,0,1.8c-0.2,0.6-0.7,1-1.3,1.3c-1.2,0.5-2.6-0.1-3-1.3l-4.1-10.1
					c-0.2-0.6-0.2-1.2,0-1.8L693,1374.6z"/>
				<path class="st7" d="M699.1,1379c-0.2-0.6-0.2-1.2,0-1.8l5.2,2.2l3.3,7.9c0.2,0.6,0.2,1.2,0,1.8c-0.2,0.6-0.7,1-1.3,1.3
					c-1.2,0.5-2.6-0.1-3-1.3L699.1,1379z"/>
				<path class="st7" d="M710.5,1383.7c-0.2-0.6-0.2-1.2,0-1.8l5.2,2.2l3.3,7.9c0.2,0.6,0.2,1.2,0,1.8c-0.2,0.6-0.7,1-1.3,1.3
					c-1.2,0.5-2.6-0.1-3-1.3L710.5,1383.7z"/>
			</g>
		</g>
	</g>
	<g id="MAMAC_00000119076478149303264880000011951249116652795794_">
		<g id="building-group_00000158025969821346622030000014807151273974251432_">
			<circle id="buidlding-pointer_00000155123338287166486940000005704669645471114639_" class="st3" cx="332.8" cy="934.6" r="15"/>
			<circle id="buidlding-shadow_00000084490639682528857430000001535385245604337540_" class="st4" cx="332.8" cy="934.6" r="7"/>
			<circle id="buidlding_00000133487877247228693830000014961842646433982394_" class="st10" cx="332.8" cy="934.6" r="4"/>
		</g>
		<g id="bridge-direction-reverse-clockwise_00000070814542964436901800000001888522365087057803_">
			<g>
				<path class="st6" d="M327.8,882.2l7.2,6c0.5,0.5,1.2,0.6,1.9,0.6s1.3-0.4,1.7-0.9c0.9-1.1,0.8-2.7-0.3-3.6l-9.2-7.6
					c-0.5-0.5-1.2-0.6-1.9-0.6L327.8,882.2z"/>
				<path class="st6" d="M330.3,890c-0.5-0.5-1.2-0.6-1.9-0.6l0.6,6.1l7.2,6c0.5,0.5,1.2,0.6,1.9,0.6s1.3-0.4,1.7-0.9
					c0.9-1.1,0.8-2.7-0.3-3.6L330.3,890z"/>
				<path class="st6" d="M331.5,903.3c-0.5-0.5-1.2-0.6-1.9-0.6l0.6,6.1l7.2,6c0.5,0.4,1.2,0.6,1.9,0.6s1.3-0.4,1.7-0.9
					c0.9-1.1,0.8-2.7-0.3-3.6L331.5,903.3z"/>
			</g>
			<g>
				<path class="st7" d="M327.8,882.2l-6,7.2c-0.5,0.5-1.1,0.8-1.7,0.9s-1.3-0.1-1.9-0.6c-1.1-0.9-1.2-2.5-0.3-3.6l7.6-9.2
					c0.5-0.5,1.1-0.8,1.7-0.9L327.8,882.2z"/>
				<path class="st7" d="M326.7,890.3c0.5-0.5,1.1-0.8,1.7-0.9l0.6,6.1l-6,7.2c-0.5,0.5-1.1,0.8-1.7,0.9c-0.6,0.1-1.3-0.1-1.9-0.6
					c-1.1-0.9-1.2-2.5-0.3-3.6L326.7,890.3z"/>
				<path class="st7" d="M327.9,903.7c0.5-0.5,1.1-0.8,1.7-0.9l0.6,6.1l-6,7.2c-0.5,0.5-1.1,0.8-1.7,0.9c-0.6,0.1-1.3-0.1-1.9-0.6
					c-1.1-0.9-1.2-2.5-0.3-3.6L327.9,903.7z"/>
			</g>
		</g>
		<g id="bridge-direction-clockwise_00000028292504950593789830000005690246115425406103_">
			<g>
				<path class="st6" d="M341.4,985.4l-6.8-5.2c-0.5-0.4-1.1-0.5-1.7-0.5s-1.2,0.4-1.5,0.9c-0.8,1-0.6,2.5,0.4,3.3l8.6,6.7
					c0.5,0.4,1.1,0.5,1.7,0.5L341.4,985.4z"/>
				<path class="st6" d="M338.8,978.4c0.5,0.4,1.1,0.5,1.7,0.5l-0.7-5.6L333,968c-0.5-0.4-1.1-0.5-1.7-0.5c-0.6,0.1-1.2,0.4-1.5,0.9
					c-0.8,1-0.6,2.5,0.4,3.3L338.8,978.4z"/>
				<path class="st6" d="M337.2,966.2c0.5,0.4,1.1,0.5,1.7,0.5l-0.7-5.6l-6.8-5.2c-0.5-0.4-1.1-0.5-1.7-0.5s-1.2,0.4-1.5,0.9
					c-0.8,1-0.6,2.5,0.4,3.3L337.2,966.2z"/>
			</g>
			<g>
				<path class="st7" d="M341.4,985.4l5.2-6.8c0.4-0.5,1-0.8,1.5-0.9s1.2,0.1,1.7,0.5c1,0.8,1.2,2.3,0.4,3.3l-6.7,8.6
					c-0.4,0.5-1,0.8-1.5,0.9L341.4,985.4z"/>
				<path class="st7" d="M342.1,978c-0.4,0.5-1,0.8-1.5,0.9l-0.7-5.6l5.2-6.8c0.4-0.5,1-0.8,1.5-0.9s1.2,0.1,1.7,0.5
					c1,0.8,1.2,2.3,0.4,3.3L342.1,978z"/>
				<path class="st7" d="M340.5,965.8c-0.4,0.5-1,0.8-1.5,0.9l-0.7-5.6l5.2-6.8c0.4-0.5,1-0.8,1.5-0.9c0.6-0.1,1.2,0.1,1.7,0.5
					c1,0.8,1.2,2.3,0.4,3.3L340.5,965.8z"/>
			</g>
		</g>
	</g>
	<g id="MEDIACITE_00000036239739377538429400000003308057422882393741_">
		<g id="building-group_00000060726887434874337000000016366737398315762093_">
			<circle id="buidlding-pointer_00000054235288017651131790000018154791693498889124_" class="st3" cx="335.1" cy="720.2" r="15"/>
			<circle id="buidlding-shadow_00000095304163077123447800000007916385009582923434_" class="st4" cx="335.1" cy="720.2" r="7"/>
			<circle id="buidlding_00000019671126683439985840000001820897561434805169_" class="st10" cx="335.1" cy="720.2" r="4"/>
		</g>
		<g id="bridge-direction-reverse-clockwise_00000043417095011078613630000014746184005805324981_">
			<g>
				<path class="st6" d="M330.1,667.9l7.2,6c0.5,0.5,1.2,0.6,1.9,0.6s1.3-0.4,1.7-0.9c0.9-1.1,0.8-2.7-0.3-3.6l-9.2-7.6
					c-0.5-0.5-1.2-0.6-1.9-0.6L330.1,667.9z"/>
				<path class="st6" d="M332.6,675.7c-0.5-0.5-1.2-0.6-1.9-0.6l0.6,6.1l7.2,6c0.5,0.5,1.2,0.6,1.9,0.6c0.6-0.1,1.3-0.4,1.7-0.9
					c0.9-1.1,0.8-2.7-0.3-3.6L332.6,675.7z"/>
				<path class="st6" d="M333.8,689c-0.5-0.5-1.2-0.6-1.9-0.6l0.6,6.1l7.2,6c0.5,0.4,1.2,0.6,1.9,0.6c0.6-0.1,1.3-0.4,1.7-0.9
					c0.9-1.1,0.8-2.7-0.3-3.6L333.8,689z"/>
			</g>
			<g>
				<path class="st7" d="M330.1,667.9l-6,7.2c-0.5,0.5-1.1,0.8-1.7,0.9c-0.6,0.1-1.3-0.1-1.9-0.6c-1.1-0.9-1.2-2.5-0.3-3.6l7.6-9.2
					c0.5-0.5,1.1-0.8,1.7-0.9L330.1,667.9z"/>
				<path class="st7" d="M329,676c0.5-0.5,1.1-0.8,1.7-0.9l0.6,6.1l-6,7.2c-0.5,0.5-1.1,0.8-1.7,0.9c-0.6,0.1-1.3-0.1-1.9-0.6
					c-1.1-0.9-1.2-2.5-0.3-3.6L329,676z"/>
				<path class="st7" d="M330.2,689.4c0.5-0.5,1.1-0.8,1.7-0.9l0.6,6.1l-6,7.2c-0.5,0.5-1.1,0.8-1.7,0.9s-1.3-0.1-1.9-0.6
					c-1.1-0.9-1.2-2.5-0.3-3.6L330.2,689.4z"/>
			</g>
		</g>
		<g id="bridge-direction-clockwise_00000041977540068204987260000002904764142596901781_">
			<g>
				<path class="st6" d="M343.7,771.1l-6.8-5.2c-0.5-0.4-1.1-0.5-1.7-0.5c-0.6,0.1-1.2,0.4-1.5,0.9c-0.8,1-0.6,2.5,0.4,3.3l8.6,6.7
					c0.5,0.4,1.1,0.5,1.7,0.5L343.7,771.1z"/>
				<path class="st6" d="M341.1,764.1c0.5,0.4,1.1,0.5,1.7,0.5l-0.7-5.6l-6.8-5.2c-0.5-0.4-1.1-0.5-1.7-0.5
					c-0.6,0.1-1.2,0.4-1.5,0.9c-0.8,1-0.6,2.5,0.4,3.3L341.1,764.1z"/>
				<path class="st6" d="M339.5,751.9c0.5,0.4,1.1,0.5,1.7,0.5l-0.7-5.6l-6.8-5.2c-0.5-0.4-1.1-0.5-1.7-0.5
					c-0.6,0.1-1.2,0.4-1.5,0.9c-0.8,1-0.6,2.5,0.4,3.3L339.5,751.9z"/>
			</g>
			<g>
				<path class="st7" d="M343.7,771.1l5.2-6.8c0.4-0.5,1-0.8,1.5-0.9c0.6-0.1,1.2,0.1,1.7,0.5c1,0.8,1.2,2.3,0.4,3.3l-6.7,8.6
					c-0.4,0.5-1,0.8-1.5,0.9L343.7,771.1z"/>
				<path class="st7" d="M344.4,763.7c-0.4,0.5-1,0.8-1.5,0.9l-0.7-5.6l5.2-6.8c0.4-0.5,1-0.8,1.5-0.9c0.6-0.1,1.2,0.1,1.7,0.5
					c1,0.8,1.2,2.3,0.4,3.3L344.4,763.7z"/>
				<path class="st7" d="M342.8,751.5c-0.4,0.5-1,0.8-1.5,0.9l-0.7-5.6l5.2-6.8c0.4-0.5,1-0.8,1.5-0.9c0.6-0.1,1.2,0.1,1.7,0.5
					c1,0.8,1.2,2.3,0.4,3.3L342.8,751.5z"/>
			</g>
		</g>
	</g>
	<g id="CURTIUS">
		<g id="building-group_00000174577126388241960560000000314039729226256554_">
			<circle id="buidlding-pointer_00000126316083910398650050000005504861834694362295_" class="st3" cx="451.5" cy="184.3" r="15"/>
			<circle id="buidlding-shadow_00000127027378904509274120000017280351148455017601_" class="st4" cx="451.5" cy="184.3" r="7"/>
			<circle id="buidlding_00000018234322026025680750000015601957526620010657_" class="st10" cx="451.5" cy="184.3" r="4"/>
		</g>
		<g id="bridge-direction-reverse-clockwise_00000173137767181959421810000011682655501989446037_">
			<g>
				<path class="st6" d="M406.8,212.1l2.2-9.1c0.2-0.7,0-1.4-0.3-1.9c-0.3-0.6-0.9-1-1.6-1.1c-1.4-0.3-2.7,0.5-3.1,1.9l-2.8,11.6
					c-0.2,0.7,0,1.4,0.3,1.9L406.8,212.1z"/>
				<path class="st6" d="M412.7,206.4c-0.2,0.7,0,1.4,0.3,1.9l5.2-3.2l2.2-9.1c0.2-0.7,0-1.4-0.3-1.9s-0.9-1-1.6-1.1
					c-1.4-0.3-2.7,0.5-3.1,1.9L412.7,206.4z"/>
				<path class="st6" d="M424.1,199.3c-0.2,0.7,0,1.4,0.3,1.9l5.2-3.2l2.2-9.1c0.2-0.7,0-1.4-0.3-1.9c-0.3-0.6-0.9-1-1.6-1.1
					c-1.4-0.3-2.7,0.5-3.1,1.9L424.1,199.3z"/>
			</g>
			<g>
				<path class="st7" d="M406.8,212.1l9.1,2.2c0.7,0.2,1.2,0.6,1.6,1.1s0.5,1.2,0.3,1.9c-0.3,1.4-1.7,2.2-3.1,1.9l-11.6-2.8
					c-0.7-0.2-1.2-0.6-1.6-1.1L406.8,212.1z"/>
				<path class="st7" d="M414.6,209.4c-0.7-0.2-1.2-0.6-1.6-1.1l5.2-3.2l9.1,2.2c0.7,0.2,1.2,0.6,1.6,1.1c0.3,0.6,0.5,1.2,0.3,1.9
					c-0.3,1.4-1.7,2.2-3.1,1.9L414.6,209.4z"/>
				<path class="st7" d="M426,202.4c-0.7-0.2-1.2-0.6-1.6-1.1l5.2-3.2l9.1,2.2c0.7,0.2,1.2,0.6,1.6,1.1c0.3,0.6,0.5,1.2,0.3,1.9
					c-0.3,1.4-1.7,2.2-3.1,1.9L426,202.4z"/>
			</g>
		</g>
		<g id="bridge-direction-clockwise_00000026157291740006362780000007604113023717864839_">
			<g>
				<path class="st6" d="M500.9,169.5l-4.4,7.4c-0.3,0.6-0.4,1.2-0.2,1.8c0.1,0.6,0.5,1.1,1.1,1.4c1.1,0.7,2.5,0.3,3.2-0.8l5.5-9.4
					c0.3-0.6,0.4-1.2,0.2-1.8L500.9,169.5z"/>
				<path class="st6" d="M494.2,172.9c0.3-0.6,0.4-1.2,0.2-1.8l-5.4,1.4l-4.4,7.4c-0.3,0.6-0.4,1.2-0.2,1.8c0.1,0.6,0.5,1.1,1.1,1.4
					c1.1,0.7,2.5,0.3,3.2-0.8L494.2,172.9z"/>
				<path class="st6" d="M482.4,176c0.3-0.6,0.4-1.2,0.2-1.8l-5.4,1.4l-4.4,7.4c-0.3,0.6-0.4,1.2-0.2,1.8c0.1,0.6,0.5,1.1,1.1,1.4
					c1.1,0.7,2.5,0.3,3.2-0.8L482.4,176z"/>
			</g>
			<g>
				<path class="st7" d="M500.9,169.5l-7.4-4.4c-0.6-0.3-0.9-0.9-1.1-1.4c-0.1-0.6-0.1-1.2,0.2-1.8c0.7-1.1,2.1-1.5,3.2-0.8l9.4,5.5
					c0.6,0.3,0.9,0.9,1.1,1.4L500.9,169.5z"/>
				<path class="st7" d="M493.4,169.7c0.6,0.3,0.9,0.9,1.1,1.4l-5.4,1.4l-7.4-4.4c-0.6-0.3-0.9-0.9-1.1-1.4s-0.1-1.2,0.2-1.8
					c0.7-1.1,2.1-1.5,3.2-0.8L493.4,169.7z"/>
				<path class="st7" d="M481.5,172.8c0.6,0.3,0.9,0.9,1.1,1.4l-5.4,1.4l-7.4-4.4c-0.6-0.3-0.9-0.9-1.1-1.4
					c-0.1-0.6-0.1-1.2,0.2-1.8c0.7-1.1,2.1-1.5,3.2-0.8L481.5,172.8z"/>
			</g>
		</g>
	</g>
	<g id="AQUARIUM">
		<g id="building-group_00000055707136228372510360000017214317639209787060_">
			<circle id="buidlding-pointer_00000093173164349585931020000012499049156982483873_" class="st3" cx="338.8" cy="479.6" r="15"/>
			<circle id="buidlding-shadow_00000070090778491924974130000007185274211603583617_" class="st4" cx="338.8" cy="479.6" r="7"/>
			<circle id="buidlding_00000150063074279773382260000012650105868650397836_" class="st10" cx="338.8" cy="479.6" r="4"/>
		</g>
		<g id="bridge-direction-reverse-clockwise_00000116200179710277149970000009442207147695935166_">
			<g>
				<path class="st6" d="M320.6,529l-3.9-8.5c-0.3-0.6-0.8-1.1-1.4-1.3c-0.6-0.2-1.3-0.2-1.9,0.1c-1.3,0.6-1.8,2.1-1.3,3.4l4.9,10.9
					c0.3,0.6,0.8,1.1,1.4,1.3L320.6,529z"/>
				<path class="st6" d="M321.7,520.8c0.3,0.6,0.8,1.1,1.4,1.3l2.2-5.8l-3.9-8.5c-0.3-0.6-0.8-1.1-1.4-1.3c-0.6-0.2-1.3-0.2-1.9,0.1
					c-1.3,0.6-1.8,2.1-1.3,3.4L321.7,520.8z"/>
				<path class="st6" d="M326.4,508.3c0.3,0.6,0.8,1.1,1.4,1.3l2.2-5.8l-3.9-8.5c-0.3-0.6-0.8-1.1-1.4-1.3s-1.3-0.2-1.9,0.1
					c-1.3,0.6-1.8,2.1-1.3,3.4L326.4,508.3z"/>
			</g>
			<g>
				<path class="st7" d="M320.6,529l8.5-3.9c0.6-0.3,1.3-0.3,1.9-0.1c0.6,0.2,1.1,0.7,1.4,1.3c0.6,1.3,0,2.8-1.3,3.4l-10.9,4.9
					c-0.6,0.3-1.3,0.3-1.9,0.1L320.6,529z"/>
				<path class="st7" d="M325.1,522.1c-0.6,0.3-1.3,0.3-1.9,0.1l2.2-5.8l8.5-3.9c0.6-0.3,1.3-0.3,1.9-0.1c0.6,0.2,1.1,0.7,1.4,1.3
					c0.6,1.3,0,2.8-1.3,3.4L325.1,522.1z"/>
				<path class="st7" d="M329.8,509.5c-0.6,0.3-1.3,0.3-1.9,0.1l2.2-5.8l8.5-3.9c0.6-0.3,1.3-0.3,1.9-0.1s1.1,0.7,1.4,1.3
					c0.6,1.3,0,2.8-1.3,3.4L329.8,509.5z"/>
			</g>
		</g>
		<g id="bridge-direction-clockwise_00000178201136374867386150000014760224392601826177_">
			<g>
				<path class="st6" d="M342.3,428.1l5.4,6.7c0.4,0.5,1,0.8,1.6,0.9s1.2-0.1,1.7-0.5c1-0.8,1.2-2.3,0.3-3.3l-6.9-8.5
					c-0.4-0.5-1-0.8-1.6-0.9L342.3,428.1z"/>
				<path class="st6" d="M343.1,435.5c-0.4-0.5-1-0.8-1.6-0.9l-0.6,5.6l5.4,6.7c0.4,0.5,1,0.8,1.6,0.9s1.2-0.1,1.7-0.5
					c1-0.8,1.2-2.3,0.3-3.3L343.1,435.5z"/>
				<path class="st6" d="M341.8,447.8c-0.4-0.5-1-0.8-1.6-0.9l-0.6,5.6l5.4,6.7c0.4,0.5,1,0.8,1.6,0.9s1.2-0.1,1.7-0.5
					c1-0.8,1.2-2.3,0.3-3.3L341.8,447.8z"/>
			</g>
			<g>
				<path class="st7" d="M342.3,428.1l-6.7,5.4c-0.5,0.4-1.1,0.6-1.7,0.5c-0.6-0.1-1.2-0.4-1.6-0.9c-0.8-1-0.7-2.5,0.3-3.3l8.5-6.9
					c0.5-0.4,1.1-0.6,1.7-0.5L342.3,428.1z"/>
				<path class="st7" d="M339.8,435.2c0.5-0.4,1.1-0.6,1.7-0.5l-0.6,5.6l-6.7,5.4c-0.5,0.4-1.1,0.6-1.7,0.5
					c-0.6-0.1-1.2-0.4-1.6-0.9c-0.8-1-0.7-2.5,0.3-3.3L339.8,435.2z"/>
				<path class="st7" d="M338.6,447.4c0.5-0.4,1.1-0.6,1.7-0.5l-0.6,5.6l-6.7,5.4c-0.5,0.4-1.1,0.6-1.7,0.5
					c-0.6-0.1-1.2-0.4-1.6-0.9c-0.8-1-0.7-2.5,0.3-3.3L338.6,447.4z"/>
			</g>
		</g>
	</g>
</g>
</svg>
