<?xml version="1.0" encoding="utf-8"?>
<!-- Generator: Adobe Illustrator 28.0.0, SVG Export Plug-In . SVG Version: 6.00 Build 0)  -->
<svg version="1.1" id="Calque_1" xmlns="http://www.w3.org/2000/svg" xmlns:xlink="http://www.w3.org/1999/xlink" x="0px" y="0px"
	 viewBox="0 0 800 800" style="enable-background:new 0 0 800 800;" xml:space="preserve">
<style type="text/css">
	.st0{fill:none;stroke:#000000;stroke-width:30;stroke-linejoin:round;stroke-miterlimit:10;}
	.st1{fill:none;stroke:#000000;stroke-width:30;stroke-linecap:round;stroke-linejoin:round;stroke-miterlimit:10;}
</style>
<path class="st0" d="M738,217.7H62c-24.9,0-45-20.1-45-45v-23.1c0-24.9,20.1-45,45-45h676c24.9,0,45,20.1,45,45v23.1
	C783,197.6,762.9,217.7,738,217.7z"/>
<path class="st0" d="M187.4,104.6V59.7c0-22.5,19.3-40.7,43.1-40.7h339c23.8,0,43.1,18.2,43.1,40.7v44.9H187.4z"/>
<path class="st0" d="M592.1,783H207.9c-21.9,0-40.1-16.6-42.2-38.4l-43.5-526.5h555.4l-43.5,526.5C632.2,766.4,613.9,783,592.1,783z
	"/>
<line class="st1" x1="555.1" y1="287.1" x2="522.1" y2="716"/>
<line class="st1" x1="399.5" y1="286.1" x2="399.5" y2="716"/>
<line class="st1" x1="243.9" y1="287.1" x2="277" y2="716"/>
</svg>
