<?xml version="1.0" encoding="utf-8"?>
<!-- Generator: Adobe Illustrator 28.0.0, SVG Export Plug-In . SVG Version: 6.00 Build 0)  -->
<svg version="1.1" id="Calque_1" xmlns="http://www.w3.org/2000/svg" xmlns:xlink="http://www.w3.org/1999/xlink" x="0px" y="0px"
	 viewBox="0 0 800 800" style="enable-background:new 0 0 800 800;" xml:space="preserve">
<style type="text/css">
	.st0{fill:none;stroke:#000000;stroke-width:30;stroke-linecap:round;stroke-miterlimit:10;}
</style>
<g>
	<path d="M384.5,758.5c-6.9,0.5-14,0.7-21,0.7c-22,0-44-2.4-65.4-7.1c-8.1-1.8-16,4-17.7,12.8c-1.6,8.9,3.6,17.5,11.7,19.3
		c23.3,5.1,47.3,7.7,71.3,7.7c7.6,0,15.3-0.3,22.9-0.8c8.3-0.6,14.5-8.3,14-17.4C399.9,764.8,392.7,758,384.5,758.5z"/>
	<path d="M216.3,721.5c-25.9-14.1-49.9-32-71.6-53c-6.2-6-15.7-5.4-21.2,1.3c-5.5,6.8-5,17.1,1.2,23.1c23.6,23,49.9,42.4,78.1,57.8
		c2.2,1.2,4.4,1.7,6.7,1.7c5.5,0,10.8-3.3,13.4-9C226.7,735.3,223.7,725.5,216.3,721.5z"/>
	<path d="M509.1,722.3c-12.8,6.9-26.2,13-39.7,18c-7.8,2.9-12,12.2-9.4,20.8c2.1,6.8,8,11.1,14.2,11.1c1.6,0,3.2-0.3,4.8-0.9
		c14.8-5.5,29.4-12.1,43.4-19.6c7.4-4,10.5-13.8,6.8-21.9C525.5,721.6,516.5,718.3,509.1,722.3z"/>
	<path d="M794.6,330.5c-2.3-6.1-9.1-10-13.9-10.1c-4.7-0.1-59.7,38.1-60.7,30.5c-1-7.6-4.7-30.5-4.7-30.5
		c-4.7-24.9-11.7-49.3-20.8-73c-18.1-46.7-44-88.6-77-124.6c-33-36-71.4-64.3-114.2-84C459,18.4,412,8,363.5,8
		C315,8,267.9,18.4,223.6,38.8c-42.8,19.7-81.2,48-114.2,84c-33,36-58.9,77.9-77,124.6C13.8,295.7,4.3,347.1,4.3,400
		c0,59.7,12,117.1,35.6,170.4c6.8,15.3,14.6,30.3,23.2,44.5c2.9,4.8,7.7,7.4,12.6,7.4c2.8,0,5.7-0.9,8.2-2.7
		c6.9-5,8.8-15.1,4.3-22.7c-7.9-13.1-15-26.8-21.2-40.8C45.2,507.3,34.3,454.7,34.3,400c0-198.1,147.7-359.3,329.2-359.3
		c156.5,0,287.8,119.8,321.1,279.7c0,0,4.5,22.8,5.5,32.7s-58-32.6-64-32.7c-6-0.1-11.5,4-13.9,10.1c-2.3,6.1-1,13.2,3.3,17.8
		l77.4,84.4c2.9,3.2,6.8,4.8,10.6,4.8s7.7-1.6,10.6-4.8l77.4-84.4C795.6,343.7,796.9,336.6,794.6,330.5z"/>
</g>
<ellipse class="st0" cx="362" cy="400" rx="138" ry="164"/>
</svg>
