<?xml version="1.0" encoding="utf-8"?>
<!-- Generator: Adobe Illustrator 28.0.0, SVG Export Plug-In . SVG Version: 6.00 Build 0)  -->
<svg version="1.1" id="Calque_1" xmlns="http://www.w3.org/2000/svg" xmlns:xlink="http://www.w3.org/1999/xlink" x="0px" y="0px"
	 viewBox="0 0 800 800" style="enable-background:new 0 0 800 800;" xml:space="preserve">
<style type="text/css">
	.st0{fill:#00007F;}
	.st1{fill:#0B4FFF;}
</style>
<g>
	<path class="st0" d="M400,126.7l130.1,130.1c9.8,9.8,22.6,14.6,35.4,14.6s25.6-4.9,35.4-14.6c19.5-19.5,19.5-51.2,0-70.7
		L435.4,20.6C425.6,10.9,412.8,6,400,6V126.7z"/>
	<path class="st0" d="M435.4,283.9c-9.8-9.8-22.6-14.6-35.4-14.6V390l130.1,130.1c9.8,9.8,22.6,14.6,35.4,14.6s25.6-4.9,35.4-14.6
		c19.5-19.5,19.5-51.2,0-70.7L435.4,283.9z"/>
	<path class="st0" d="M435.4,547.2c-9.8-9.8-22.6-14.6-35.4-14.6v120.7l130.1,130.1c9.8,9.8,22.6,14.6,35.4,14.6s25.6-4.9,35.4-14.6
		c19.5-19.5,19.5-51.2,0-70.7L435.4,547.2z"/>
</g>
<g>
	<path class="st1" d="M400,126.7L269.9,256.8c-9.8,9.8-22.6,14.6-35.4,14.6s-25.6-4.9-35.4-14.6c-19.5-19.5-19.5-51.2,0-70.7
		L364.6,20.6C374.4,10.9,387.2,6,400,6V126.7z"/>
	<path class="st1" d="M364.6,283.9c9.8-9.8,22.6-14.6,35.4-14.6V390L269.9,520.1c-9.8,9.8-22.6,14.6-35.4,14.6s-25.6-4.9-35.4-14.6
		c-19.5-19.5-19.5-51.2,0-70.7L364.6,283.9z"/>
	<path class="st1" d="M364.6,547.2c9.8-9.8,22.6-14.6,35.4-14.6v120.7L269.9,783.4c-9.8,9.8-22.6,14.6-35.4,14.6
		s-25.6-4.9-35.4-14.6c-19.5-19.5-19.5-51.2,0-70.7L364.6,547.2z"/>
</g>
</svg>
