<svg version="1.1" xmlns="http://www.w3.org/2000/svg" xmlns:xlink="http://www.w3.org/1999/xlink" x="0px" y="0px"
	 viewBox="0 0 800 800" style="enable-background:new 0 0 800 800;" xml:space="preserve">
<style type="text/css">
	.icon-interrogation{fill:none;stroke:currentColor;stroke-width:50;stroke-miterlimit:10;}
</style>
<g>
	<path fill="currentColor" d="M464.7,228.9c-14.5-15.3-33.8-22.9-58-22.9c-30.2,0-53,8.2-68.5,24.5c-15.5,16.4-23.3,38.6-23.3,66.6
		c0,9.4-3,17.1-8.9,23.3c-6,6.2-13.8,9.2-23.6,9.2c-9.4,0-17.1-3.1-23.3-9.2c-6.2-6.2-9.2-13.9-9.2-23.3c0-29.3,6.5-55.5,19.4-78.4
		c13-22.9,31.3-40.8,55.1-53.5c23.8-12.7,51.2-19.1,82.2-19.1c27.2,0,51.7,5.8,73.6,17.5c21.9,11.7,39,28,51.3,49.1
		c12.3,21,18.5,44.9,18.5,71.7c0,22.9-3.6,43-10.8,60.2c-7.2,17.2-17,32.5-29.3,45.9c-12.3,13.4-28.3,27.9-47.8,43.7
		c-10.2,8.1-17.6,18.9-22.3,32.5c-4.7,13.6-7,25.9-7,37c0,9.4-3,17.1-8.9,23.3c-6,6.2-13.8,9.2-23.6,9.2c-9.4,0-17.1-3.1-23.3-9.2
		c-6.2-6.2-9.2-13.9-9.2-23.3c0-17.8,4.5-36.5,13.4-56.1c8.9-19.5,21.9-36.5,38.9-51c16.1-13.6,28.4-24.9,36.6-33.8
		s15.3-19.8,21-32.5c5.7-12.7,8.6-28,8.6-45.9C486.4,262.6,479.1,244.2,464.7,228.9z M431.9,578.5c8.7,8.7,13.1,19.2,13.1,31.5
		c0,11.9-4.4,22.2-13.1,30.9c-8.7,8.7-19.2,13.1-31.6,13.1c-11.9,0-22.2-4.4-30.9-13.1c-8.7-8.7-13.1-19-13.1-30.9
		c0-12.3,4.4-22.8,13.1-31.5c8.7-8.7,19-13.1,30.9-13.1C412.6,565.4,423.2,569.8,431.9,578.5z"/>
</g>
<circle class="icon-interrogation" cx="400" cy="400" r="380"/>
</svg>
