<svg version="1.1" xmlns="http://www.w3.org/2000/svg" xmlns:xlink="http://www.w3.org/1999/xlink" x="0px" y="0px"
	 viewBox="0 0 800 800" style="enable-background:new 0 0 800 800;" xml:space="preserve">
<style type="text/css">
	.icon-journey{fill:currentColor;}
	.icon-journey-1{fill:currentColor;}
</style>
<path class="icon-journey" d="M683.5,2.3c-61,0-110.5,49.5-110.5,110.5s79.9,196.3,110.5,196.3S794,173.8,794,112.8S744.5,2.3,683.5,2.3z
	 M683.5,171.8c-32.6,0-59-26.4-59-59s26.4-59,59-59s59,26.4,59,59S716.1,171.8,683.5,171.8z"/>
<path class="icon-journey" d="M127,459C60.2,459,6,513.2,6,580s87.5,215,121,215s121-148.2,121-215S193.9,459,127,459z M127,644.7
	c-35.7,0-64.6-28.9-64.6-64.6c0-35.7,28.9-64.6,64.6-64.6s64.6,28.9,64.6,64.6C191.7,615.7,162.7,644.7,127,644.7z"/>
<g>
	<path class="icon-journey-1" d="M435,622H275c-11,0-20,9-20,20s9,20,20,20h160c11,0,20-9,20-20S446,622,435,622z"/>
	<path class="icon-journey-1" d="M355,405.1c0-11-9-20-20-20h-86.3c-23,0-44.9-3.9-65.2-11.5c-10.3-3.9-21.9,1.3-25.8,11.7s1.3,21.9,11.7,25.8
		c24.8,9.3,51.4,14,79.2,14H335C346.1,425.1,355,416.2,355,405.1z"/>
	<path class="icon-journey-1" d="M222.8,168.8c-2.4-10.8-13-17.6-23.8-15.2C129.5,168.9,79,214.5,70.3,269.7c-1.7,10.9,5.7,21.1,16.6,22.9
		c1.1,0.2,2.1,0.2,3.1,0.2c9.7,0,18.2-7,19.7-16.9c6-38.3,45.3-71.7,97.7-83.3C218.3,190.3,225.2,179.6,222.8,168.8z"/>
	<path class="icon-journey-1" d="M726.5,534.1c-10.4-3.6-21.8,1.9-25.4,12.4c-12.9,37.3-55.7,66.3-109,73.7c-10.9,1.5-18.6,11.6-17.1,22.6
		c1.4,10,10,17.2,19.8,17.2c0.9,0,1.8-0.1,2.8-0.2c33-4.6,63.6-16.2,88.4-33.5c25.7-17.9,44-41,52.9-66.8
		C742.5,549.1,737,537.7,726.5,534.1z"/>
	<path class="icon-journey-1" d="M652.2,444.2c7.4,0,14.6-4.2,18-11.3c4.8-9.9,0.6-21.9-9.3-26.7c-28.6-13.8-61.7-21.1-95.7-21.1H495
		c-11,0-20,9-20,20s9,20,20,20h70.2c28,0,55.1,5.9,78.3,17.1C646.3,443.6,649.3,444.2,652.2,444.2z"/>
	<path class="icon-journey-1" d="M542.7,168.3c0-6.1-2.8-11.9-7.6-15.7l-60.9-48.1c-8.7-6.9-21.2-5.4-28.1,3.3c-6.9,8.7-5.4,21.2,3.3,28.1
		l15.7,12.4H362.9c-11,0-20,9-20,20c0,11,9,20,20,20h102.3l-15.7,12.4c-8.7,6.9-10.1,19.4-3.3,28.1c3.9,5,9.8,7.6,15.7,7.6
		c4.3,0,8.7-1.4,12.4-4.3l60.9-48.1C539.9,180.2,542.7,174.4,542.7,168.3z"/>
</g>
</svg>
