<svg version="1.1" xmlns="http://www.w3.org/2000/svg" xmlns:xlink="http://www.w3.org/1999/xlink" x="0px" y="0px"
	 viewBox="0 0 800 800" style="enable-background:new 0 0 800 800;" xml:space="preserve">
<style type="text/css">
	.icon-clockwise{fill:none;stroke:currentColor;stroke-width:50;stroke-linecap:round;stroke-miterlimit:10;}
</style>
<g>
	<path fill="currentColor" d="M415.5,758.5c6.9,0.5,14,0.7,21,0.7c22,0,44-2.4,65.4-7.1c8.1-1.8,16,4,17.7,12.8c1.6,8.9-3.6,17.5-11.7,19.3
		c-23.3,5.1-47.3,7.7-71.3,7.7c-7.6,0-15.3-0.3-22.9-0.8c-8.3-0.6-14.5-8.3-14-17.4C400.1,764.8,407.3,758,415.5,758.5z"/>
	<path fill="currentColor" d="M583.7,721.5c25.9-14.1,49.9-32,71.6-53c6.2-6,15.7-5.4,21.2,1.3c5.5,6.8,5,17.1-1.2,23.1c-23.6,23-49.9,42.4-78.1,57.8
		c-2.2,1.2-4.4,1.7-6.7,1.7c-5.5,0-10.8-3.3-13.4-9C573.3,735.3,576.3,725.5,583.7,721.5z"/>
	<path fill="currentColor" d="M290.9,722.3c12.8,6.9,26.2,13,39.7,18c7.8,2.9,12,12.2,9.4,20.8c-2.1,6.8-8,11.1-14.2,11.1c-1.6,0-3.2-0.3-4.8-0.9
		c-14.8-5.5-29.4-12.1-43.4-19.6c-7.4-4-10.5-13.8-6.8-21.9C274.5,721.6,283.5,718.3,290.9,722.3z"/>
	<path fill="currentColor" d="M5.4,330.5c2.3-6.1,9.1-10,13.9-10.1C24,320.3,79,358.5,80,350.9c1-7.6,4.7-30.5,4.7-30.5c4.7-24.9,11.7-49.3,20.8-73
		c18.1-46.7,44-88.6,77-124.6c33-36,71.4-64.3,114.2-84C341,18.4,388,8,436.5,8c48.5,0,95.5,10.4,139.8,30.8
		c42.8,19.7,81.2,48,114.2,84c33,36,58.9,77.9,77,124.6c18.7,48.3,28.2,99.7,28.2,152.6c0,59.7-12,117.1-35.6,170.4
		c-6.8,15.3-14.6,30.3-23.2,44.5c-2.9,4.8-7.7,7.4-12.6,7.4c-2.8,0-5.7-0.9-8.2-2.7c-6.9-5-8.8-15.1-4.3-22.7
		c7.9-13.1,15-26.8,21.2-40.8c21.7-48.9,32.6-101.4,32.6-156.2c0-198.1-147.7-359.3-329.2-359.3c-156.5,0-287.8,119.8-321.1,279.7
		c0,0-4.5,22.8-5.5,32.7s58-32.6,64-32.7c6-0.1,11.5,4,13.9,10.1c2.3,6.1,1,13.2-3.3,17.8l-77.4,84.4c-2.9,3.2-6.8,4.8-10.6,4.8
		S89,436,86,432.8L8.7,348.4C4.4,343.7,3.1,336.6,5.4,330.5z"/>
</g>
<ellipse class="icon-clockwise" cx="438" cy="400" rx="138" ry="164"/>
</svg>
